<?xml version="1.0" encoding="utf-8"?>
<!-- Generator: Adobe Illustrator 17.0.0, SVG Export Plug-In . SVG Version: 6.00 Build 0)  -->
<!DOCTYPE svg PUBLIC "-//W3C//DTD SVG 1.1//EN" "http://www.w3.org/Graphics/SVG/1.1/DTD/svg11.dtd">
<svg version="1.1" xmlns="http://www.w3.org/2000/svg" xmlns:xlink="http://www.w3.org/1999/xlink" x="0px" y="0px" width="37.74px"
	 height="37.75px" viewBox="0 0 37.74 37.75" enable-background="new 0 0 37.74 37.75" xml:space="preserve">
<g id="Layer_3">
	<g>
		<path fill="#FFFFFF" d="M18.87,0C8.45,0,0,8.45,0,18.88C0,29.3,8.45,37.75,18.87,37.75c10.43,0,18.87-8.45,18.87-18.87
			C37.74,8.45,29.3,0,18.87,0z M25.83,10.05h-0.34c-0.83,0-1.66-0.02-2.48,0c-1.13,0.04-1.97,0.48-2.01,1.89
			c-0.03,1.03-0.04,3.4-0.04,3.4s2.66,0.01,3.81,0h0.92c-0.21,1.65-0.42,3.23-0.63,4.82h-4.07v12.03H16V20.14h-4.08v-4.79h4.11
			v-0.36c0-0.97-0.02-1.93,0-2.89c0.02-0.62,0.04-1.24,0.15-1.84c0.26-1.47,0.93-2.7,2.16-3.59c1.07-0.76,2.29-1.08,3.58-1.11
			c0.85-0.02,1.7,0.03,2.54,0.06c0.46,0.03,0.93,0.09,1.37,0.13V10.05z"/>
	</g>
</g>
<g id="Layer_2">
</g>
</svg>
