<?xml version="1.0" encoding="utf-8"?>
<!-- Generator: Adobe Illustrator 17.0.0, SVG Export Plug-In . SVG Version: 6.00 Build 0)  -->
<!DOCTYPE svg PUBLIC "-//W3C//DTD SVG 1.1//EN" "http://www.w3.org/Graphics/SVG/1.1/DTD/svg11.dtd">
<svg version="1.1" xmlns="http://www.w3.org/2000/svg" xmlns:xlink="http://www.w3.org/1999/xlink" x="0px" y="0px"
	 width="154.39px" height="52.213px" viewBox="0 0 154.39 52.213" enable-background="new 0 0 154.39 52.213" xml:space="preserve">
<g id="Layer_3">
	<g>
		<path fill="#FFFFFF" d="M21.862,4.733c0.813,0,1.531-0.412,1.957-1.039c0.392,0.083,0.981,0.228,1.71,0.477
			c-0.001,0.044-0.01,0.085-0.01,0.128c0,1.074,0.866,1.942,1.939,1.942c0.537,0,1.023-0.22,1.376-0.572
			c0.59,0.337,1.2,0.727,1.82,1.179c-0.052,0.154-0.085,0.315-0.085,0.487c0,0.861,0.698,1.561,1.561,1.561
			c0.262,0,0.503-0.07,0.718-0.184c0.53,0.521,1.054,1.093,1.564,1.721c-0.035,0.113-0.059,0.231-0.059,0.356
			c0,0.679,0.551,1.227,1.227,1.23c0.399,0.597,0.787,1.233,1.153,1.917c-0.154,0.172-0.25,0.397-0.25,0.648
			c0,0.536,0.434,0.969,0.969,0.969c0.537,0,0.969-0.434,0.969-0.969c0-0.499-0.374-0.904-0.857-0.96
			c-0.222-0.534-0.554-1.242-1.037-2.052c0.177-0.215,0.285-0.485,0.285-0.782c0-0.679-0.55-1.23-1.23-1.23
			c-0.137,0-0.268,0.027-0.392,0.07c-0.457-0.581-0.988-1.179-1.594-1.779c0.057-0.163,0.094-0.334,0.094-0.516
			c0-0.863-0.7-1.562-1.561-1.562c-0.268,0-0.517,0.074-0.737,0.193c-0.619-0.456-1.295-0.9-2.03-1.324
			c0.02-0.111,0.035-0.224,0.035-0.343c0-1.07-0.87-1.938-1.94-1.938c-0.59,0-1.113,0.267-1.467,0.683
			c-0.566-0.216-1.152-0.422-1.77-0.61c0.001-0.023,0.007-0.046,0.007-0.068C24.227,1.059,23.168,0,21.862,0
			c-1.307,0-2.366,1.059-2.366,2.366S20.555,4.733,21.862,4.733z"/>
		<path fill="#FFFFFF" d="M14.321,8.915c0.777-0.242,1.338-0.85,1.558-1.574c0.399-0.039,1.003-0.076,1.775-0.056
			c0.009,0.043,0.012,0.086,0.026,0.129c0.318,1.022,1.409,1.592,2.429,1.272c0.516-0.16,0.916-0.515,1.144-0.958
			c0.663,0.147,1.362,0.337,2.09,0.584c-0.004,0.163,0.012,0.327,0.063,0.49c0.258,0.824,1.135,1.282,1.957,1.025
			c0.249-0.078,0.46-0.218,0.632-0.39c0.661,0.338,1.33,0.728,2.004,1.175c0.003,0.119,0.014,0.238,0.052,0.357
			c0.202,0.648,0.89,1.009,1.539,0.808c0.559,0.451,1.117,0.942,1.672,1.485c-0.096,0.211-0.122,0.455-0.048,0.692
			c0.16,0.512,0.704,0.796,1.217,0.637c0.511-0.16,0.796-0.704,0.637-1.216c-0.151-0.474-0.629-0.749-1.106-0.659
			c-0.371-0.444-0.898-1.019-1.603-1.65c0.106-0.257,0.129-0.547,0.04-0.833c-0.202-0.648-0.894-1.01-1.543-0.807
			c-0.132,0.04-0.249,0.107-0.353,0.184c-0.608-0.417-1.294-0.83-2.051-1.221c0.004-0.172-0.009-0.347-0.064-0.521
			c-0.258-0.822-1.134-1.282-1.957-1.024C24.175,6.926,23.96,7.07,23.788,7.25C23.058,7,22.28,6.777,21.453,6.592
			c-0.014-0.112-0.034-0.224-0.069-0.338c-0.319-1.022-1.407-1.591-2.429-1.273c-0.564,0.177-0.983,0.59-1.198,1.092
			c-0.605-0.038-1.227-0.059-1.871-0.055c-0.005-0.023-0.007-0.044-0.013-0.068c-0.39-1.246-1.717-1.942-2.964-1.552
			c-1.247,0.39-1.942,1.717-1.552,2.963C11.745,8.611,13.073,9.305,14.321,8.915z"/>
		<path fill="#FFFFFF" d="M5,17.21c0.551-0.599,0.732-1.407,0.56-2.144c0.328-0.235,0.833-0.567,1.509-0.937
			c0.029,0.031,0.053,0.066,0.087,0.096c0.788,0.726,2.016,0.675,2.74-0.115c0.364-0.396,0.532-0.904,0.508-1.401
			c0.649-0.206,1.349-0.392,2.103-0.543c0.077,0.142,0.175,0.278,0.3,0.394c0.636,0.582,1.622,0.542,2.207-0.094
			c0.176-0.192,0.287-0.417,0.352-0.654c0.74-0.038,1.515-0.035,2.322,0.016c0.061,0.102,0.133,0.199,0.224,0.284
			c0.5,0.457,1.276,0.426,1.737-0.073c0.711,0.11,1.444,0.257,2.197,0.45c0.022,0.229,0.117,0.455,0.298,0.622
			c0.395,0.361,1.01,0.336,1.372-0.057c0.362-0.395,0.337-1.009-0.057-1.372c-0.364-0.335-0.906-0.323-1.276-0.012
			c-0.543-0.201-1.293-0.436-2.227-0.632c-0.038-0.274-0.16-0.537-0.379-0.74c-0.5-0.459-1.278-0.426-1.738,0.076
			c-0.094,0.102-0.163,0.215-0.216,0.336c-0.735-0.057-1.536-0.069-2.387-0.03c-0.079-0.152-0.181-0.294-0.317-0.42
			c-0.633-0.582-1.621-0.539-2.206,0.094c-0.181,0.197-0.295,0.43-0.356,0.674c-0.756,0.147-1.54,0.345-2.348,0.599
			c-0.069-0.09-0.142-0.177-0.229-0.257c-0.788-0.726-2.016-0.674-2.743,0.115c-0.396,0.434-0.551,1.001-0.487,1.544
			c-0.542,0.27-1.089,0.563-1.647,0.889c-0.016-0.017-0.029-0.035-0.046-0.051c-0.962-0.884-2.458-0.821-3.341,0.141
			c-0.886,0.962-0.822,2.459,0.141,3.342C2.62,18.236,4.114,18.172,5,17.21z"/>
		<path fill="#FFFFFF" d="M4.489,25.126c0.36-0.732,0.306-1.557-0.066-2.215c0.248-0.317,0.637-0.779,1.181-1.326
			c0.039,0.022,0.07,0.049,0.111,0.069c0.962,0.473,2.124,0.076,2.597-0.886c0.237-0.483,0.254-1.016,0.093-1.488
			c0.563-0.38,1.182-0.757,1.863-1.114c0.113,0.113,0.244,0.215,0.396,0.291c0.775,0.38,1.711,0.061,2.09-0.713
			c0.117-0.235,0.16-0.482,0.152-0.726c0.701-0.249,1.444-0.465,2.233-0.646c0.087,0.081,0.182,0.154,0.293,0.21
			c0.61,0.298,1.346,0.048,1.647-0.56c0.713-0.096,1.453-0.162,2.228-0.19c0.086,0.214,0.246,0.4,0.468,0.509
			c0.485,0.237,1.065,0.039,1.3-0.442c0.236-0.481,0.038-1.061-0.443-1.299c-0.448-0.219-0.976-0.06-1.239,0.348
			c-0.577-0.037-1.358-0.051-2.301,0.026c-0.113-0.251-0.308-0.47-0.575-0.601c-0.61-0.3-1.349-0.048-1.647,0.562
			c-0.06,0.125-0.094,0.255-0.109,0.384c-0.723,0.154-1.495,0.366-2.299,0.648c-0.121-0.124-0.258-0.232-0.424-0.314
			c-0.774-0.379-1.708-0.059-2.089,0.715c-0.119,0.24-0.163,0.495-0.151,0.745c-0.683,0.356-1.379,0.767-2.084,1.239
			c-0.091-0.066-0.188-0.129-0.292-0.18c-0.96-0.473-2.123-0.077-2.596,0.885c-0.259,0.53-0.249,1.117-0.034,1.62
			c-0.442,0.41-0.885,0.847-1.326,1.319c-0.021-0.012-0.037-0.026-0.057-0.038c-1.174-0.575-2.59-0.09-3.168,1.081
			c-0.575,1.174-0.091,2.59,1.081,3.168C2.498,26.783,3.915,26.298,4.489,25.126z"/>
		<path fill="#FFFFFF" d="M8.547,26.715c-0.046-0.257-0.159-0.482-0.306-0.676c0.418-0.611,0.89-1.226,1.419-1.84
			c0.117,0.016,0.237,0.018,0.361-0.003c0.668-0.119,1.113-0.757,0.997-1.426c0.516-0.499,1.076-0.99,1.684-1.471
			c0.197,0.122,0.434,0.177,0.682,0.136c0.528-0.095,0.88-0.598,0.784-1.126c-0.092-0.528-0.597-0.878-1.123-0.786
			c-0.491,0.087-0.824,0.528-0.794,1.014c-0.489,0.311-1.127,0.762-1.842,1.381c-0.241-0.137-0.525-0.198-0.817-0.146
			c-0.671,0.117-1.117,0.757-0.997,1.428c0.025,0.134,0.074,0.258,0.138,0.373c-0.491,0.551-0.989,1.179-1.471,1.882
			c-0.171-0.027-0.345-0.034-0.525-0.003c-0.85,0.151-1.415,0.962-1.263,1.81c0.046,0.265,0.163,0.496,0.318,0.692
			c-0.341,0.689-0.659,1.435-0.949,2.232c-0.112,0-0.227,0.004-0.341,0.025c-1.055,0.189-1.759,1.196-1.571,2.25
			c0.104,0.581,0.46,1.048,0.93,1.324c-0.113,0.594-0.214,1.208-0.291,1.848c-0.023,0.005-0.046,0.003-0.068,0.007
			c-1.285,0.228-2.145,1.457-1.915,2.744c0.229,1.286,1.457,2.144,2.744,1.916c1.287-0.228,2.144-1.458,1.914-2.744
			c-0.142-0.8-0.672-1.436-1.363-1.746c0.012-0.403,0.053-1.005,0.168-1.767c0.044-0.005,0.087-0.001,0.129-0.01
			c1.057-0.186,1.76-1.195,1.571-2.249c-0.094-0.53-0.395-0.971-0.805-1.255c0.231-0.64,0.507-1.311,0.842-1.999
			c0.162,0.022,0.327,0.029,0.495-0.003C8.131,28.375,8.696,27.565,8.547,26.715z"/>
		<path fill="#FFFFFF" d="M12.752,46.252c-0.227-0.33-0.553-0.84-0.91-1.522c0.031-0.031,0.068-0.053,0.098-0.087
			c0.737-0.775,0.706-2.003-0.07-2.742c-0.39-0.371-0.893-0.547-1.392-0.533c-0.195-0.652-0.37-1.354-0.507-2.111
			c0.145-0.076,0.279-0.169,0.396-0.293c0.596-0.626,0.569-1.613-0.056-2.209c-0.188-0.179-0.412-0.295-0.646-0.362
			c-0.026-0.741-0.01-1.515,0.052-2.322c0.103-0.059,0.202-0.128,0.288-0.219c0.466-0.493,0.448-1.268-0.043-1.737
			c0.121-0.711,0.28-1.44,0.485-2.189c0.231-0.018,0.457-0.109,0.628-0.289c0.37-0.39,0.353-1.003-0.033-1.373
			c-0.39-0.369-1.003-0.352-1.373,0.037c-0.341,0.358-0.339,0.9-0.035,1.273c-0.208,0.541-0.456,1.286-0.667,2.216
			c-0.274,0.033-0.539,0.152-0.747,0.369c-0.468,0.491-0.448,1.271,0.047,1.74c0.099,0.095,0.212,0.166,0.331,0.219
			c-0.068,0.736-0.096,1.535-0.068,2.387c-0.152,0.078-0.301,0.178-0.424,0.309c-0.595,0.625-0.571,1.613,0.055,2.209
			c0.194,0.184,0.426,0.301,0.667,0.366c0.134,0.758,0.318,1.547,0.559,2.358c-0.09,0.068-0.179,0.139-0.259,0.224
			c-0.739,0.777-0.708,2.004,0.069,2.744c0.429,0.405,0.99,0.569,1.535,0.515c0.259,0.545,0.543,1.1,0.861,1.661
			c-0.016,0.016-0.037,0.027-0.052,0.044c-0.9,0.947-0.863,2.443,0.086,3.344c0.947,0.9,2.444,0.864,3.344-0.085
			c0.903-0.947,0.863-2.446-0.085-3.345C14.299,46.289,13.492,46.091,12.752,46.252z"/>
		<path fill="#FFFFFF" d="M23.544,47.717c-0.732-0.354-1.557-0.297-2.214,0.082c-0.317-0.246-0.783-0.632-1.334-1.174
			c0.023-0.038,0.051-0.072,0.069-0.111c0.467-0.964,0.064-2.124-0.9-2.592c-0.485-0.235-1.018-0.249-1.491-0.082
			c-0.382-0.563-0.764-1.178-1.125-1.854c0.113-0.116,0.215-0.249,0.289-0.403c0.375-0.777,0.051-1.711-0.727-2.086
			c-0.235-0.113-0.482-0.155-0.727-0.149c-0.251-0.697-0.472-1.44-0.658-2.228c0.081-0.087,0.154-0.182,0.208-0.294
			c0.293-0.611,0.039-1.346-0.572-1.642c-0.099-0.713-0.171-1.454-0.202-2.228c0.212-0.089,0.399-0.248,0.507-0.472
			c0.233-0.483,0.033-1.063-0.451-1.297c-0.482-0.233-1.062-0.031-1.295,0.452c-0.216,0.447-0.053,0.976,0.356,1.235
			c-0.034,0.58-0.043,1.359,0.039,2.301c-0.253,0.116-0.468,0.31-0.599,0.579c-0.295,0.611-0.039,1.347,0.575,1.643
			c0.125,0.06,0.254,0.092,0.384,0.108c0.159,0.721,0.375,1.492,0.662,2.295c-0.124,0.121-0.233,0.261-0.311,0.424
			c-0.377,0.777-0.051,1.711,0.726,2.086c0.241,0.116,0.498,0.158,0.748,0.146c0.358,0.681,0.775,1.375,1.251,2.076
			c-0.066,0.09-0.129,0.186-0.18,0.292c-0.465,0.966-0.061,2.125,0.904,2.592c0.529,0.255,1.117,0.241,1.617,0.023
			c0.414,0.44,0.853,0.881,1.328,1.32c-0.01,0.02-0.027,0.035-0.037,0.057c-0.569,1.175-0.077,2.592,1.1,3.16
			c1.177,0.568,2.592,0.077,3.161-1.101C25.213,49.7,24.721,48.285,23.544,47.717z"/>
		<path fill="#FFFFFF" d="M36.545,46.645c-0.803,0.141-1.436,0.675-1.743,1.364c-0.403-0.013-1.006-0.053-1.769-0.168
			c-0.004-0.043-0.003-0.086-0.009-0.129c-0.189-1.055-1.198-1.758-2.252-1.57c-0.53,0.096-0.969,0.396-1.255,0.808
			c-0.64-0.229-1.308-0.504-1.999-0.842c0.023-0.159,0.029-0.324-0.001-0.494c-0.152-0.85-0.963-1.414-1.813-1.263
			c-0.257,0.047-0.483,0.159-0.676,0.307c-0.614-0.418-1.229-0.89-1.842-1.419c0.014-0.117,0.017-0.237-0.004-0.361
			c-0.12-0.667-0.756-1.113-1.426-0.994c-0.498-0.517-0.992-1.075-1.471-1.684c0.121-0.197,0.176-0.434,0.133-0.68
			c-0.094-0.529-0.598-0.88-1.124-0.786c-0.529,0.095-0.878,0.599-0.786,1.127c0.089,0.49,0.529,0.822,1.015,0.792
			c0.311,0.489,0.762,1.126,1.381,1.839c-0.135,0.242-0.197,0.525-0.145,0.821c0.12,0.668,0.758,1.114,1.428,0.994
			c0.134-0.025,0.261-0.074,0.374-0.139c0.551,0.491,1.179,0.986,1.883,1.47c-0.029,0.171-0.034,0.345-0.004,0.524
			c0.152,0.851,0.964,1.415,1.814,1.264c0.263-0.047,0.493-0.163,0.692-0.321c0.688,0.341,1.433,0.659,2.229,0.946
			c0,0.113,0.007,0.227,0.027,0.343c0.188,1.054,1.196,1.757,2.253,1.568c0.579-0.104,1.045-0.46,1.321-0.93
			c0.596,0.113,1.209,0.212,1.849,0.291c0.004,0.021,0.001,0.044,0.005,0.066c0.231,1.287,1.459,2.142,2.745,1.913
			c1.286-0.229,2.144-1.459,1.914-2.745C39.059,47.269,37.829,46.414,36.545,46.645z"/>
		<path fill="#FFFFFF" d="M47.178,39.347c-0.619,0.53-0.897,1.308-0.814,2.061c-0.352,0.192-0.893,0.463-1.608,0.752
			c-0.027-0.038-0.047-0.076-0.074-0.11c-0.697-0.813-1.922-0.91-2.735-0.211c-0.41,0.349-0.637,0.833-0.674,1.328
			c-0.668,0.128-1.388,0.229-2.151,0.288c-0.06-0.15-0.138-0.295-0.249-0.426c-0.564-0.654-1.548-0.731-2.205-0.171
			c-0.198,0.169-0.336,0.381-0.427,0.606c-0.74-0.05-1.51-0.145-2.305-0.291c-0.047-0.108-0.107-0.214-0.188-0.309
			c-0.44-0.515-1.216-0.577-1.734-0.137c-0.692-0.194-1.401-0.426-2.127-0.71c0.005-0.228-0.061-0.463-0.223-0.653
			c-0.348-0.405-0.963-0.455-1.368-0.104c-0.407,0.347-0.456,0.96-0.107,1.367c0.322,0.377,0.863,0.429,1.264,0.164
			c0.516,0.265,1.233,0.59,2.134,0.894c0.007,0.276,0.096,0.553,0.291,0.779c0.443,0.516,1.217,0.577,1.736,0.136
			c0.104-0.09,0.185-0.197,0.253-0.31c0.724,0.146,1.517,0.254,2.366,0.315c0.063,0.162,0.146,0.317,0.266,0.453
			c0.558,0.655,1.544,0.732,2.201,0.172c0.203-0.175,0.343-0.392,0.433-0.626c0.769-0.055,1.571-0.158,2.404-0.314
			c0.057,0.098,0.12,0.194,0.195,0.281c0.696,0.816,1.922,0.91,2.736,0.212c0.447-0.383,0.668-0.926,0.671-1.472
			c0.569-0.202,1.148-0.427,1.74-0.685c0.014,0.018,0.025,0.039,0.039,0.057c0.85,0.992,2.343,1.108,3.334,0.259
			c0.996-0.851,1.11-2.344,0.262-3.337C49.663,38.615,48.171,38.5,47.178,39.347z"/>
		<path fill="#FFFFFF" d="M54.014,30.487c-1.082-0.731-2.553-0.447-3.285,0.636c-0.456,0.672-0.517,1.499-0.236,2.201
			c-0.291,0.28-0.74,0.685-1.353,1.152c-0.035-0.026-0.065-0.059-0.1-0.083c-0.889-0.601-2.095-0.367-2.695,0.521
			c-0.301,0.446-0.394,0.972-0.295,1.461c-0.612,0.3-1.276,0.588-1.999,0.848c-0.098-0.129-0.212-0.248-0.354-0.343
			c-0.715-0.483-1.686-0.296-2.17,0.418c-0.145,0.216-0.223,0.457-0.25,0.698c-0.727,0.147-1.495,0.261-2.301,0.332
			c-0.074-0.092-0.158-0.179-0.261-0.249c-0.563-0.379-1.325-0.233-1.708,0.328c-0.719-0.001-1.461-0.038-2.233-0.117
			c-0.057-0.225-0.188-0.431-0.394-0.571c-0.446-0.301-1.048-0.184-1.349,0.261c-0.298,0.443-0.181,1.048,0.262,1.347
			c0.412,0.278,0.959,0.194,1.273-0.173c0.569,0.115,1.339,0.236,2.283,0.291c0.08,0.265,0.241,0.507,0.487,0.674
			c0.563,0.382,1.328,0.233,1.71-0.33c0.076-0.115,0.125-0.237,0.16-0.366c0.737-0.052,1.531-0.156,2.366-0.324
			c0.103,0.139,0.225,0.266,0.375,0.367c0.714,0.483,1.684,0.295,2.167-0.418c0.151-0.224,0.229-0.47,0.254-0.719
			c0.723-0.257,1.472-0.569,2.233-0.942c0.081,0.08,0.167,0.156,0.265,0.22c0.886,0.602,2.093,0.366,2.693-0.521
			c0.33-0.489,0.399-1.071,0.253-1.599c0.498-0.344,0.995-0.717,1.498-1.123c0.018,0.014,0.031,0.031,0.051,0.044
			c1.083,0.732,2.554,0.447,3.286-0.635C55.382,32.69,55.098,31.219,54.014,30.487z"/>
		<path fill="#FFFFFF" d="M53.257,17.066c-1.307-0.012-2.374,1.039-2.386,2.344c-0.009,0.813,0.397,1.535,1.019,1.966
			c-0.087,0.392-0.237,0.979-0.491,1.707c-0.046-0.004-0.086-0.014-0.13-0.014c-1.071-0.009-1.947,0.852-1.958,1.923
			c-0.005,0.538,0.211,1.025,0.563,1.38c-0.344,0.586-0.739,1.195-1.196,1.809c-0.154-0.051-0.314-0.087-0.486-0.089
			c-0.864-0.008-1.569,0.687-1.577,1.548c-0.003,0.261,0.065,0.504,0.176,0.722c-0.525,0.525-1.101,1.041-1.734,1.547
			c-0.112-0.035-0.231-0.059-0.354-0.061c-0.679-0.007-1.234,0.537-1.242,1.217c-0.601,0.395-1.239,0.775-1.926,1.135
			c-0.173-0.156-0.395-0.255-0.645-0.257c-0.536-0.004-0.976,0.426-0.98,0.96c-0.005,0.536,0.426,0.973,0.963,0.979
			c0.496,0.005,0.906-0.367,0.967-0.848c0.537-0.218,1.246-0.541,2.063-1.019c0.211,0.179,0.481,0.291,0.778,0.293
			c0.68,0.007,1.235-0.539,1.242-1.22c0.001-0.137-0.025-0.268-0.066-0.394c0.584-0.451,1.188-0.977,1.792-1.578
			c0.163,0.059,0.335,0.096,0.515,0.099c0.861,0.008,1.568-0.684,1.577-1.547c0.001-0.267-0.07-0.517-0.186-0.737
			c0.461-0.618,0.912-1.289,1.342-2.018c0.111,0.021,0.224,0.035,0.341,0.038c1.07,0.008,1.948-0.853,1.956-1.925
			c0.005-0.589-0.258-1.113-0.668-1.472c0.222-0.563,0.431-1.148,0.626-1.763c0.023,0,0.046,0.007,0.068,0.007
			c1.307,0.013,2.374-1.039,2.387-2.343C55.614,18.146,54.564,17.077,53.257,17.066z"/>
		<path fill="#FFFFFF" d="M44.537,25.109c-0.339,0.661-0.728,1.33-1.174,2.005c-0.12,0.001-0.24,0.014-0.36,0.052
			c-0.645,0.201-1.007,0.89-0.808,1.538c-0.45,0.559-0.942,1.119-1.484,1.672c-0.21-0.094-0.453-0.121-0.692-0.047
			c-0.511,0.162-0.796,0.704-0.636,1.217c0.16,0.509,0.704,0.795,1.216,0.635c0.477-0.147,0.749-0.625,0.659-1.104
			c0.444-0.371,1.02-0.898,1.65-1.604c0.257,0.104,0.547,0.13,0.833,0.04c0.648-0.202,1.007-0.891,0.805-1.541
			c-0.042-0.132-0.107-0.248-0.184-0.354c0.417-0.607,0.83-1.294,1.222-2.051c0.171,0.004,0.345-0.01,0.519-0.065
			c0.825-0.257,1.283-1.134,1.024-1.957c-0.08-0.255-0.224-0.469-0.403-0.644c0.25-0.728,0.473-1.506,0.658-2.334
			c0.111-0.014,0.223-0.035,0.334-0.069c1.023-0.319,1.592-1.409,1.273-2.432c-0.176-0.562-0.588-0.979-1.091-1.195
			c0.039-0.605,0.06-1.226,0.055-1.871c0.023-0.007,0.044-0.007,0.069-0.014c1.246-0.388,1.939-1.716,1.549-2.963
			c-0.391-1.247-1.716-1.944-2.964-1.553c-1.246,0.391-1.94,1.719-1.552,2.966c0.242,0.777,0.851,1.338,1.574,1.556
			c0.04,0.4,0.074,1.007,0.056,1.776c-0.042,0.01-0.083,0.012-0.126,0.029c-1.023,0.318-1.592,1.406-1.273,2.429
			c0.162,0.513,0.516,0.913,0.958,1.143c-0.145,0.664-0.335,1.362-0.582,2.089c-0.162-0.003-0.327,0.013-0.491,0.064
			c-0.824,0.258-1.28,1.135-1.024,1.958C44.225,24.726,44.363,24.937,44.537,25.109z"/>
		<path fill="#FFFFFF" d="M35.12,5.821c0.641,0.5,1.462,0.619,2.181,0.387c0.258,0.307,0.632,0.784,1.054,1.429
			c-0.029,0.031-0.063,0.059-0.09,0.094c-0.659,0.843-0.508,2.063,0.336,2.723c0.423,0.331,0.942,0.457,1.436,0.395
			c0.258,0.629,0.499,1.312,0.708,2.051c-0.133,0.089-0.262,0.195-0.365,0.331c-0.532,0.68-0.41,1.661,0.267,2.192
			c0.206,0.162,0.44,0.254,0.68,0.3c0.098,0.736,0.159,1.509,0.173,2.317c-0.098,0.069-0.189,0.147-0.266,0.245
			c-0.417,0.534-0.324,1.306,0.21,1.727c-0.052,0.717-0.139,1.458-0.271,2.226c-0.225,0.04-0.443,0.152-0.596,0.347
			c-0.33,0.424-0.257,1.035,0.166,1.363c0.424,0.33,1.032,0.253,1.362-0.166c0.309-0.392,0.261-0.943-0.085-1.285
			c0.155-0.559,0.328-1.319,0.448-2.258c0.27-0.059,0.523-0.203,0.706-0.438c0.418-0.537,0.323-1.307-0.212-1.728
			c-0.109-0.083-0.229-0.143-0.352-0.186c-0.004-0.739-0.053-1.538-0.163-2.383c0.145-0.093,0.279-0.205,0.392-0.347
			c0.532-0.68,0.41-1.661-0.268-2.193c-0.212-0.164-0.453-0.259-0.7-0.301c-0.208-0.743-0.468-1.509-0.786-2.293
			c0.083-0.076,0.166-0.156,0.237-0.248c0.661-0.844,0.509-2.064-0.334-2.723c-0.465-0.365-1.042-0.472-1.577-0.365
			c-0.311-0.519-0.649-1.041-1.018-1.571c0.013-0.017,0.033-0.03,0.047-0.047c0.804-1.031,0.62-2.519-0.409-3.321
			c-1.029-0.805-2.515-0.623-3.321,0.407C33.908,3.529,34.092,5.017,35.12,5.821z"/>
		<polygon fill="#FFFFFF" points="64.249,32.49 65.238,27.286 64.125,27.286 63.137,32.49 		"/>
		<path fill="#FFFFFF" d="M68.991,29.178c-0.147,0.764-0.216,1.336-0.24,1.869h-0.023c-0.122-0.571-0.263-1.112-0.472-1.776
			l-0.687-1.985h-1.304l-0.989,5.204h1.035l0.34-1.822c0.155-0.818,0.279-1.56,0.339-2.061l0.025-0.008
			c0.138,0.64,0.278,1.112,0.509,1.814l0.726,2.077H69.4l0.98-5.204h-1.035L68.991,29.178z"/>
		<path fill="#FFFFFF" d="M73.877,30.815c0-0.618-0.4-1.044-1.035-1.376c-0.439-0.246-0.756-0.431-0.756-0.732
			c0-0.287,0.27-0.549,0.788-0.549c0.431-0.008,0.803,0.139,0.972,0.232l0.348-0.928c-0.224-0.122-0.594-0.262-1.229-0.262
			c-1.135,0-2.054,0.641-2.054,1.691c0,0.68,0.525,1.082,1.082,1.383c0.478,0.248,0.702,0.44,0.702,0.734
			c0,0.409-0.394,0.61-0.826,0.61c-0.478,0-0.919-0.147-1.227-0.332l-0.37,0.911c0.246,0.185,0.764,0.371,1.489,0.371
			C72.921,32.568,73.877,31.973,73.877,30.815z"/>
		<polygon fill="#FFFFFF" points="74.728,28.259 76.102,28.259 75.307,32.491 76.419,32.491 77.215,28.259 78.605,28.259 
			78.79,27.285 74.922,27.285 		"/>
		<polygon fill="#FFFFFF" points="79.516,32.49 80.504,27.286 79.392,27.286 78.405,32.49 		"/>
		<polygon fill="#FFFFFF" points="84.79,28.259 84.976,27.285 81.107,27.285 80.913,28.259 82.288,28.259 81.493,32.491 
			82.604,32.491 83.401,28.259 		"/>
		<path fill="#FFFFFF" d="M88.544,27.286l-0.572,3.003c-0.185,0.966-0.571,1.351-1.149,1.351c-0.503,0-0.757-0.323-0.757-0.741
			c0-0.231,0.014-0.439,0.053-0.618l0.571-2.996h-1.112l-0.547,2.904c-0.048,0.246-0.078,0.502-0.078,0.726
			c0,1.111,0.657,1.66,1.729,1.66c1.414,0,2.108-0.757,2.411-2.332l0.563-2.958H88.544z"/>
		<polygon fill="#FFFFFF" points="91.732,32.491 92.528,28.259 93.917,28.259 94.104,27.285 90.235,27.285 90.041,28.259 
			91.416,28.259 90.621,32.491 		"/>
		<path fill="#FFFFFF" d="M95.95,32.575c0.779,0,1.436-0.278,1.922-0.748c0.595-0.588,0.926-1.506,0.926-2.456
			c0-1.243-0.725-2.17-2.1-2.17c-0.748,0-1.413,0.278-1.899,0.741c-0.611,0.586-0.958,1.521-0.958,2.463
			C93.841,31.617,94.598,32.575,95.95,32.575z M95.671,28.521c0.241-0.246,0.549-0.394,0.895-0.394c0.82,0,1.05,0.625,1.05,1.274
			c0,0.602-0.223,1.459-0.632,1.869c-0.24,0.232-0.549,0.378-0.873,0.378c-0.756,0-1.088-0.549-1.088-1.281
			C95.023,29.742,95.255,28.931,95.671,28.521z"/>
		<path fill="#FFFFFF" d="M101.926,30.613c0.115,0.016,0.27,0.031,0.456,0.031c0.632,0,1.235-0.147,1.659-0.478
			c0.41-0.317,0.711-0.81,0.711-1.467c0-0.502-0.216-0.865-0.564-1.105c-0.379-0.27-0.919-0.347-1.382-0.347
			c-0.502,0-1.027,0.053-1.358,0.138l-0.966,5.104h1.088L101.926,30.613z M102.389,28.174c0.094-0.023,0.24-0.039,0.447-0.039
			c0.434,0,0.797,0.163,0.797,0.665c0,0.517-0.44,0.95-1.113,0.95c-0.185,0-0.309-0.016-0.425-0.039L102.389,28.174z"/>
		<path fill="#FFFFFF" d="M109.053,31.827c0.596-0.588,0.926-1.506,0.926-2.456c0-1.243-0.724-2.17-2.101-2.17
			c-0.748,0-1.412,0.278-1.9,0.741c-0.61,0.586-0.956,1.521-0.956,2.463c0,1.212,0.757,2.17,2.108,2.17
			C107.91,32.575,108.567,32.298,109.053,31.827z M106.205,30.368c0-0.625,0.232-1.437,0.648-1.846
			c0.241-0.246,0.549-0.394,0.895-0.394c0.82,0,1.05,0.625,1.05,1.274c0,0.602-0.223,1.459-0.632,1.869
			c-0.24,0.232-0.549,0.378-0.873,0.378C106.537,31.649,106.205,31.1,106.205,30.368z"/>
		<polygon fill="#FFFFFF" points="112.034,32.491 112.83,28.259 114.22,28.259 114.405,27.285 110.536,27.285 110.344,28.259 
			111.718,28.259 110.923,32.491 		"/>
		<path fill="#FFFFFF" d="M118.173,31.827c0.596-0.588,0.926-1.506,0.926-2.456c0-1.243-0.724-2.17-2.099-2.17
			c-0.749,0-1.414,0.278-1.9,0.741c-0.611,0.586-0.958,1.521-0.958,2.463c0,1.212,0.757,2.17,2.108,2.17
			C117.03,32.575,117.687,32.298,118.173,31.827z M115.325,30.368c0-0.625,0.232-1.437,0.648-1.846
			c0.241-0.246,0.549-0.394,0.895-0.394c0.82,0,1.052,0.625,1.052,1.274c0,0.602-0.224,1.459-0.633,1.869
			c-0.24,0.232-0.549,0.378-0.872,0.378C115.657,31.649,115.325,31.1,115.325,30.368z"/>
		<path fill="#FFFFFF" d="M120.815,31.618c-0.48,0-0.919-0.147-1.227-0.332l-0.37,0.911c0.246,0.185,0.765,0.371,1.489,0.371
			c1.158,0,2.115-0.595,2.115-1.753c0-0.618-0.4-1.044-1.035-1.376c-0.438-0.246-0.756-0.431-0.756-0.732
			c0-0.287,0.27-0.549,0.787-0.549c0.434-0.008,0.804,0.139,0.973,0.232l0.348-0.928c-0.224-0.122-0.594-0.262-1.229-0.262
			c-1.135,0-2.054,0.641-2.054,1.691c0,0.68,0.525,1.082,1.082,1.383c0.478,0.248,0.702,0.44,0.702,0.734
			C121.641,31.417,121.247,31.618,120.815,31.618z"/>
		<polygon fill="#FFFFFF" points="125.379,27.286 124.266,27.286 123.279,32.49 124.39,32.49 		"/>
		<path fill="#FFFFFF" d="M130.522,27.286h-1.035l-0.354,1.892c-0.149,0.764-0.218,1.336-0.241,1.869h-0.023
			c-0.122-0.571-0.262-1.112-0.47-1.776l-0.687-1.985h-1.306l-0.988,5.204h1.035l0.34-1.822c0.154-0.818,0.278-1.56,0.339-2.061
			l0.023-0.008c0.138,0.64,0.278,1.112,0.511,1.814l0.725,2.077h1.151L130.522,27.286z"/>
		<path fill="#FFFFFF" d="M131.742,27.943c-0.611,0.586-0.958,1.521-0.958,2.463c0,1.212,0.757,2.17,2.108,2.17
			c0.779,0,1.436-0.278,1.922-0.748c0.596-0.588,0.926-1.506,0.926-2.456c0-1.243-0.724-2.17-2.099-2.17
			C132.893,27.201,132.228,27.479,131.742,27.943z M134.559,29.402c0,0.602-0.223,1.459-0.632,1.869
			c-0.24,0.232-0.549,0.378-0.873,0.378c-0.756,0-1.088-0.549-1.088-1.281c0-0.625,0.232-1.437,0.648-1.846
			c0.241-0.246,0.549-0.394,0.895-0.394C134.329,28.128,134.559,28.753,134.559,29.402z"/>
		<path fill="#FFFFFF" d="M141.355,31.834c0.649-0.517,1.075-1.39,1.075-2.394c-0.009-0.765-0.271-1.282-0.689-1.63
			c-0.439-0.378-1.088-0.563-1.899-0.563c-0.503,0-0.995,0.038-1.436,0.116l-0.967,5.065c0.257,0.047,0.797,0.092,1.422,0.092
			C139.99,32.521,140.753,32.312,141.355,31.834z M139.372,28.174c0.115-0.023,0.277-0.031,0.47-0.031
			c0.919,0,1.375,0.487,1.375,1.306c0,0.625-0.186,1.166-0.541,1.568c-0.34,0.393-0.873,0.61-1.475,0.61
			c-0.193,0-0.354-0.008-0.486-0.031L139.372,28.174z"/>
		<polygon fill="#FFFFFF" points="146.051,31.541 143.974,31.541 144.213,30.282 146.067,30.282 146.244,29.348 144.391,29.348 
			144.607,28.236 146.568,28.236 146.753,27.286 143.673,27.286 142.684,32.49 145.874,32.49 		"/>
		<polygon fill="#FFFFFF" points="65.238,36.553 64.125,36.553 63.137,41.757 64.249,41.757 		"/>
		<path fill="#FFFFFF" d="M70.38,36.553h-1.035l-0.354,1.892c-0.147,0.764-0.216,1.336-0.24,1.869h-0.023
			c-0.122-0.571-0.263-1.112-0.472-1.776l-0.687-1.985h-1.304l-0.989,5.204h1.035l0.34-1.822c0.155-0.818,0.279-1.56,0.339-2.061
			l0.025-0.008c0.138,0.64,0.278,1.111,0.509,1.814l0.726,2.077H69.4L70.38,36.553z"/>
		<path fill="#FFFFFF" d="M72.828,41.757l2.688-5.204h-1.243l-1.166,2.471c-0.255,0.541-0.503,1.097-0.696,1.607h-0.016
			c-0.03-0.541-0.069-1.05-0.124-1.599l-0.231-2.478H70.89l0.649,5.204H72.828z"/>
		<polygon fill="#FFFFFF" points="79.022,37.503 79.207,36.553 76.126,36.553 75.137,41.757 78.327,41.757 78.504,40.808 
			76.427,40.808 76.666,39.549 78.52,39.549 78.697,38.615 76.844,38.615 77.061,37.503 		"/>
		<path fill="#FFFFFF" d="M81.586,37.425c0.433-0.008,0.803,0.139,0.973,0.232l0.348-0.928c-0.224-0.122-0.595-0.262-1.229-0.262
			c-1.135,0-2.054,0.641-2.054,1.691c0,0.68,0.524,1.081,1.08,1.382c0.48,0.248,0.704,0.44,0.704,0.734
			c0,0.409-0.395,0.61-0.827,0.61c-0.478,0-0.919-0.147-1.227-0.332l-0.37,0.911c0.246,0.185,0.765,0.371,1.489,0.371
			c1.16,0,2.116-0.596,2.116-1.753c0-0.618-0.401-1.044-1.035-1.376c-0.439-0.246-0.757-0.431-0.757-0.732
			C80.797,37.689,81.068,37.425,81.586,37.425z"/>
		<polygon fill="#FFFFFF" points="85.13,41.758 85.925,37.526 87.316,37.526 87.502,36.552 83.632,36.552 83.439,37.526 
			84.814,37.526 84.019,41.758 		"/>
		<polygon fill="#FFFFFF" points="89.215,36.553 88.103,36.553 87.115,41.757 88.226,41.757 		"/>
		<path fill="#FFFFFF" d="M94.072,38.792H92.18l-0.169,0.889h0.804l-0.21,1.096c-0.123,0.055-0.309,0.092-0.563,0.092
			c-0.818,0-1.337-0.439-1.337-1.312c0-0.71,0.302-1.328,0.751-1.684c0.347-0.27,0.811-0.417,1.326-0.417
			c0.465,0,0.865,0.108,1.105,0.216l0.332-0.942c-0.202-0.1-0.702-0.232-1.382-0.232c-0.903,0-1.706,0.27-2.295,0.757
			c-0.662,0.564-1.065,1.405-1.065,2.378c0,0.665,0.24,1.235,0.657,1.607c0.433,0.386,1.019,0.571,1.738,0.571
			c0.655,0,1.281-0.162,1.682-0.293L94.072,38.792z"/>
		<path fill="#FFFFFF" d="M95.27,41.757l0.618-1.351h1.498l0.107,1.351h1.168l-0.611-5.204h-1.428l-2.533,5.204H95.27z
			 M96.729,38.437c0.139-0.301,0.285-0.702,0.417-1.019h0.014c0.025,0.317,0.055,0.734,0.078,1.019l0.1,1.119h-1.127L96.729,38.437z
			"/>
		<path fill="#FFFFFF" d="M102.35,37.426c0.448,0,0.788,0.092,0.943,0.169l0.3-0.903c-0.146-0.092-0.571-0.224-1.135-0.224
			c-0.732,0-1.373,0.177-1.914,0.556c-0.788,0.525-1.312,1.436-1.312,2.602c0,1.375,0.926,2.209,2.3,2.209
			c0.627,0,1.097-0.1,1.375-0.224l-0.092-0.895c-0.262,0.108-0.626,0.169-0.988,0.169c-0.92,0-1.383-0.556-1.383-1.383
			c0-0.726,0.278-1.32,0.718-1.676C101.478,37.565,101.902,37.426,102.35,37.426z"/>
		<polygon fill="#FFFFFF" points="105.579,36.553 104.466,36.553 103.478,41.757 104.591,41.757 		"/>
		<polygon fill="#FFFFFF" points="108.243,36.252 109.185,36.252 110.204,35.279 108.969,35.279 		"/>
		<path fill="#FFFFFF" d="M107.95,41.842c0.779,0,1.436-0.278,1.922-0.749c0.594-0.586,0.926-1.505,0.926-2.455
			c0-1.243-0.726-2.17-2.099-2.17c-0.749,0-1.414,0.277-1.9,0.74c-0.611,0.588-0.959,1.522-0.959,2.464
			C105.84,40.885,106.597,41.842,107.95,41.842z M107.672,37.789c0.238-0.248,0.547-0.394,0.895-0.394
			c0.818,0,1.05,0.625,1.05,1.274c0,0.601-0.224,1.459-0.635,1.869c-0.238,0.231-0.547,0.378-0.87,0.378
			c-0.758,0-1.089-0.549-1.089-1.282C107.023,39.008,107.254,38.198,107.672,37.789z"/>
		<path fill="#FFFFFF" d="M112.436,39.936c0.154-0.818,0.279-1.56,0.339-2.061l0.023-0.008c0.138,0.64,0.278,1.111,0.511,1.814
			l0.725,2.077h1.151l0.981-5.204h-1.035l-0.354,1.892c-0.149,0.764-0.216,1.336-0.24,1.869h-0.025
			c-0.122-0.571-0.262-1.112-0.47-1.776l-0.687-1.985h-1.306l-0.988,5.204h1.035L112.436,39.936z"/>
		<path fill="#FFFFFF" d="M121.44,40.716c-0.263,0.108-0.627,0.169-0.989,0.169c-0.919,0-1.383-0.556-1.383-1.383
			c0-0.726,0.278-1.32,0.718-1.676c0.317-0.262,0.741-0.401,1.19-0.401c0.448,0,0.788,0.092,0.942,0.169l0.301-0.903
			c-0.147-0.092-0.571-0.224-1.135-0.224c-0.734,0-1.373,0.177-1.914,0.556c-0.788,0.525-1.313,1.436-1.313,2.602
			c0,1.375,0.928,2.209,2.301,2.209c0.626,0,1.096-0.1,1.375-0.224L121.44,40.716z"/>
		<polygon fill="#FFFFFF" points="123.216,41.757 124.205,36.553 123.092,36.553 122.105,41.757 		"/>
		<polygon fill="#FFFFFF" points="126.166,37.503 128.127,37.503 128.312,36.553 125.232,36.553 124.243,41.757 127.433,41.757 
			127.61,40.808 125.533,40.808 125.772,39.549 127.626,39.549 127.803,38.615 125.95,38.615 		"/>
		<path fill="#FFFFFF" d="M129.27,41.757l0.34-1.822c0.155-0.818,0.279-1.56,0.339-2.061l0.025-0.008
			c0.138,0.64,0.278,1.111,0.509,1.814l0.726,2.077h1.151l0.98-5.204h-1.035l-0.354,1.892c-0.147,0.764-0.216,1.336-0.24,1.869
			h-0.023c-0.122-0.571-0.262-1.112-0.47-1.776l-0.687-1.985h-1.306l-0.989,5.204H129.27z"/>
		<polygon fill="#FFFFFF" points="137.811,36.552 133.943,36.552 133.75,37.526 135.125,37.526 134.33,41.758 135.44,41.758 
			136.236,37.526 137.626,37.526 		"/>
		<polygon fill="#FFFFFF" points="137.425,41.757 138.538,41.757 139.527,36.553 138.414,36.553 		"/>
		<polygon fill="#FFFFFF" points="139.402,36.275 140.422,35.302 139.187,35.302 138.46,36.275 		"/>
		<polygon fill="#FFFFFF" points="143.417,37.503 143.602,36.553 140.553,36.553 139.564,41.757 140.677,41.757 141.069,39.664 
			142.876,39.664 143.063,38.724 141.248,38.724 141.487,37.503 		"/>
		<polygon fill="#FFFFFF" points="143.488,41.757 144.599,41.757 145.587,36.553 144.476,36.553 		"/>
		<path fill="#FFFFFF" d="M148.453,40.885c-0.92,0-1.383-0.556-1.383-1.383c0-0.726,0.278-1.32,0.718-1.676
			c0.317-0.262,0.74-0.401,1.188-0.401c0.448,0,0.788,0.092,0.943,0.169l0.3-0.903c-0.146-0.092-0.571-0.224-1.135-0.224
			c-0.732,0-1.373,0.177-1.914,0.556c-0.787,0.525-1.312,1.436-1.312,2.602c0,1.375,0.926,2.209,2.3,2.209
			c0.627,0,1.097-0.1,1.375-0.224l-0.092-0.895C149.179,40.824,148.815,40.885,148.453,40.885z"/>
		<path fill="#FFFFFF" d="M153.781,36.553h-1.429l-2.532,5.204H151l0.619-1.351h1.497l0.108,1.351h1.166L153.781,36.553z
			 M151.942,39.556l0.517-1.119c0.139-0.301,0.287-0.702,0.418-1.019h0.014c0.023,0.317,0.053,0.734,0.078,1.019l0.1,1.119H151.942z
			"/>
		<path fill="#FFFFFF" d="M65.831,47.132c-0.223,0.379-0.378,0.672-0.532,0.95h-0.016c-0.055-0.262-0.108-0.509-0.201-0.942
			l-0.332-1.32h-1.19l1.012,3.08l-0.403,2.124h1.113l0.409-2.146l2.248-3.058h-1.329L65.831,47.132z"/>
		<polygon fill="#FFFFFF" points="73.415,45.819 69.547,45.819 69.352,46.792 70.728,46.792 69.934,51.025 71.044,51.025 
			71.84,46.792 73.23,46.792 		"/>
		<polygon fill="#FFFFFF" points="73.052,51.024 76.243,51.024 76.419,50.075 74.343,50.075 74.581,48.816 76.434,48.816 
			76.613,47.882 74.76,47.882 74.975,46.77 76.937,46.77 77.121,45.82 74.041,45.82 		"/>
		<path fill="#FFFFFF" d="M80.395,46.692c0.448,0,0.79,0.092,0.943,0.169l0.3-0.903c-0.146-0.092-0.571-0.224-1.135-0.224
			c-0.732,0-1.373,0.179-1.913,0.556c-0.79,0.525-1.313,1.437-1.313,2.602c0,1.375,0.926,2.209,2.3,2.209
			c0.627,0,1.097-0.1,1.375-0.224l-0.091-0.895c-0.263,0.108-0.627,0.169-0.989,0.169c-0.919,0-1.383-0.555-1.383-1.382
			c0-0.726,0.278-1.32,0.718-1.676C79.524,46.831,79.948,46.692,80.395,46.692z"/>
		<path fill="#FFFFFF" d="M85.262,47.712c-0.147,0.764-0.216,1.336-0.24,1.869h-0.025c-0.122-0.571-0.262-1.112-0.47-1.776
			l-0.687-1.985h-1.304l-0.989,5.204h1.035l0.34-1.822c0.154-0.82,0.278-1.561,0.339-2.063l0.023-0.008
			c0.138,0.641,0.279,1.113,0.511,1.815l0.725,2.077h1.151l0.981-5.204h-1.035L85.262,47.712z"/>
		<path fill="#FFFFFF" d="M89.771,45.734c-0.749,0-1.414,0.279-1.9,0.743c-0.611,0.586-0.958,1.521-0.958,2.463
			c0,1.212,0.757,2.17,2.108,2.17c0.781,0,1.436-0.278,1.922-0.749c0.595-0.586,0.926-1.505,0.926-2.455
			C91.871,46.662,91.146,45.734,89.771,45.734z M90.057,49.803c-0.24,0.233-0.549,0.379-0.873,0.379
			c-0.756,0-1.088-0.549-1.088-1.282c0-0.625,0.232-1.436,0.649-1.845c0.24-0.246,0.547-0.393,0.895-0.393
			c0.818,0,1.05,0.625,1.05,1.273C90.69,48.538,90.466,49.394,90.057,49.803z"/>
		<polygon fill="#FFFFFF" points="94.236,45.82 93.123,45.82 92.134,51.024 95.247,51.024 95.431,50.052 93.432,50.052 		"/>
		<path fill="#FFFFFF" d="M98.653,45.735c-0.749,0-1.414,0.277-1.9,0.741c-0.611,0.586-0.959,1.521-0.959,2.463
			c0,1.212,0.757,2.171,2.11,2.171c0.779,0,1.436-0.279,1.922-0.751c0.595-0.586,0.926-1.505,0.926-2.455
			C100.752,46.661,100.026,45.735,98.653,45.735z M98.937,49.804c-0.239,0.232-0.546,0.378-0.87,0.378
			c-0.758,0-1.089-0.549-1.089-1.282c0-0.625,0.231-1.436,0.649-1.845c0.239-0.246,0.547-0.394,0.895-0.394
			c0.818,0,1.05,0.625,1.05,1.274C99.571,48.538,99.347,49.395,98.937,49.804z"/>
		<polygon fill="#FFFFFF" points="100.158,44.545 98.922,44.545 98.197,45.519 99.139,45.519 		"/>
		<path fill="#FFFFFF" d="M104.544,46.723c0.464,0,0.865,0.108,1.105,0.216l0.332-0.942c-0.202-0.1-0.702-0.232-1.383-0.232
			c-0.903,0-1.707,0.27-2.295,0.757c-0.663,0.563-1.065,1.405-1.065,2.378c0,0.663,0.24,1.235,0.657,1.607
			c0.431,0.386,1.019,0.571,1.737,0.571c0.657,0,1.281-0.162,1.684-0.293l0.517-2.726h-1.892l-0.171,0.887h0.804l-0.209,1.097
			c-0.124,0.053-0.309,0.092-0.563,0.092c-0.82,0-1.337-0.439-1.337-1.312c0-0.71,0.301-1.328,0.749-1.684
			C103.562,46.871,104.026,46.723,104.544,46.723z"/>
		<polygon fill="#FFFFFF" points="106.188,51.024 107.3,51.024 108.289,45.82 107.176,45.82 		"/>
		<path fill="#FFFFFF" d="M111.155,50.151c-0.919,0-1.382-0.555-1.382-1.382c0-0.726,0.278-1.32,0.718-1.676
			c0.317-0.262,0.74-0.401,1.188-0.401c0.448,0,0.788,0.092,0.943,0.169l0.3-0.903c-0.146-0.092-0.569-0.224-1.135-0.224
			c-0.732,0-1.373,0.179-1.913,0.556c-0.788,0.525-1.313,1.437-1.313,2.602c0,1.375,0.926,2.209,2.3,2.209
			c0.627,0,1.097-0.1,1.375-0.224l-0.091-0.895C111.88,50.09,111.517,50.151,111.155,50.151z"/>
		<path fill="#FFFFFF" d="M116.483,45.82h-1.429l-2.532,5.204h1.181l0.619-1.351h1.497l0.108,1.351h1.166L116.483,45.82z
			 M114.645,48.823l0.516-1.119c0.141-0.301,0.287-0.702,0.418-1.02h0.014c0.023,0.318,0.055,0.734,0.078,1.02l0.1,1.119H114.645z"
			/>
		<path fill="#FFFFFF" d="M117.062,51.943l0.804-0.069c0.456-0.603,0.926-1.414,1.282-2.201l-1.205,0.077
			C117.74,50.452,117.402,51.256,117.062,51.943z"/>
		<path fill="#FFFFFF" d="M123.254,45.82l-2.532,5.204h1.181l0.619-1.351h1.497l0.108,1.351h1.166l-0.61-5.204H123.254z
			 M122.846,48.823l0.516-1.119c0.139-0.301,0.287-0.702,0.418-1.02h0.014c0.023,0.318,0.053,0.734,0.078,1.02l0.1,1.119H122.846z"
			/>
		<path fill="#FFFFFF" d="M126.599,49.674c-0.448,0-0.749,0.362-0.749,0.787c0,0.371,0.247,0.641,0.625,0.641
			c0.44,0,0.765-0.317,0.765-0.773C127.24,49.943,126.976,49.674,126.599,49.674z"/>
		<path fill="#FFFFFF" d="M131.216,46.692c0.448,0,0.788,0.092,0.942,0.169l0.301-0.903c-0.147-0.092-0.571-0.224-1.135-0.224
			c-0.734,0-1.373,0.179-1.914,0.556c-0.788,0.525-1.313,1.437-1.313,2.602c0,1.375,0.928,2.209,2.301,2.209
			c0.626,0,1.096-0.1,1.375-0.224l-0.093-0.895c-0.263,0.108-0.627,0.169-0.989,0.169c-0.919,0-1.383-0.555-1.383-1.382
			c0-0.726,0.278-1.32,0.718-1.676C130.343,46.831,130.768,46.692,131.216,46.692z"/>
		<path fill="#FFFFFF" d="M133.109,49.674c-0.448,0-0.749,0.362-0.749,0.787c0,0.371,0.246,0.641,0.625,0.641
			c0.439,0,0.764-0.317,0.764-0.773C133.748,49.943,133.487,49.674,133.109,49.674z"/>
		<polygon fill="#FFFFFF" points="69.994,5.488 66.352,5.488 63.116,22.536 66.758,22.536 		"/>
		<path fill="#FFFFFF" d="M74.85,16.389c0.379,0.051,0.886,0.102,1.493,0.102c2.074,0,4.046-0.481,5.438-1.568
			c1.341-1.037,2.327-2.657,2.327-4.806c0-1.644-0.708-2.833-1.846-3.617c-1.239-0.886-3.01-1.139-4.528-1.139
			c-1.644,0-3.363,0.177-4.451,0.456L70.12,22.535h3.568L74.85,16.389z M76.368,8.397c0.304-0.077,0.785-0.126,1.467-0.126
			c1.416,0,2.605,0.53,2.605,2.175c0,1.694-1.441,3.11-3.642,3.11c-0.606,0-1.011-0.05-1.392-0.126L76.368,8.397z"/>
		<polygon fill="#FFFFFF" points="91.189,5.488 87.547,5.488 84.31,22.536 87.952,22.536 		"/>
		<path fill="#FFFFFF" d="M99.612,22.788c2.048,0,3.591-0.328,4.502-0.734l-0.304-2.933c-0.861,0.353-2.05,0.556-3.238,0.556
			c-3.009,0-4.527-1.822-4.527-4.528c0-2.378,0.911-4.325,2.352-5.488c1.037-0.86,2.429-1.316,3.896-1.316
			c1.467,0,2.579,0.304,3.086,0.558l0.986-2.961c-0.482-0.304-1.872-0.732-3.719-0.732c-2.403,0-4.502,0.581-6.272,1.82
			c-2.581,1.72-4.301,4.705-4.301,8.524C92.074,20.057,95.11,22.788,99.612,22.788z"/>
		<path fill="#FFFFFF" d="M109.475,22.536h3.643l1.34-7.031l7.361-10.016h-4.351l-2.554,4.3c-0.735,1.239-1.239,2.201-1.746,3.11
			h-0.05c-0.178-0.86-0.356-1.669-0.658-3.086l-1.088-4.325h-3.895l3.314,10.092L109.475,22.536z"/>
		<polygon fill="#FFFFFF" points="126.295,8.675 123.689,22.535 127.332,22.535 129.937,8.675 134.489,8.675 135.097,5.488 
			122.425,5.488 121.793,8.675 		"/>
	</g>
</g>
<g id="Layer_2">
</g>
</svg>
