<?xml version="1.0" encoding="utf-8"?>
<!-- Generator: Adobe Illustrator 17.0.0, SVG Export Plug-In . SVG Version: 6.00 Build 0)  -->
<!DOCTYPE svg PUBLIC "-//W3C//DTD SVG 1.1//EN" "http://www.w3.org/Graphics/SVG/1.1/DTD/svg11.dtd">
<svg version="1.1" xmlns="http://www.w3.org/2000/svg" xmlns:xlink="http://www.w3.org/1999/xlink" x="0px" y="0px" width="37.74px"
	 height="37.75px" viewBox="0 0 37.74 37.75" enable-background="new 0 0 37.74 37.75" xml:space="preserve">
<g id="Layer_3">
	<g>
		<path fill="#FFFFFF" d="M18.88,15.04c-2.13,0-3.84,1.7-3.85,3.82c0,2.12,1.71,3.85,3.8,3.85c2.15,0,3.87-1.69,3.88-3.82
			C22.71,16.76,21,15.04,18.88,15.04z M18.88,15.04c-2.13,0-3.84,1.7-3.85,3.82c0,2.12,1.71,3.85,3.8,3.85
			c2.15,0,3.87-1.69,3.88-3.82C22.71,16.76,21,15.04,18.88,15.04z M18.87,0C8.45,0,0,8.45,0,18.88C0,29.3,8.45,37.75,18.87,37.75
			c10.42,0,18.87-8.45,18.87-18.87C37.74,8.45,29.29,0,18.87,0z M30.09,25.55c-0.69,2.64-2.41,4.2-5.07,4.63
			c-2.01,0.33-10.98,0.39-12.81-0.08c-2.63-0.68-4.2-2.39-4.64-5.05C7.25,23.1,7.14,14.03,7.69,12.06c0.71-2.55,2.41-4.07,5-4.49
			c2.27-0.37,8.73-0.27,11.44-0.13c1.6,0.09,3.06,0.59,4.25,1.73c1.13,1.08,1.71,2.42,1.87,3.94
			C30.43,14.94,30.62,23.53,30.09,25.55z M24.68,9.63c-1.97-0.31-9.34-0.28-11.39-0.05c-2.02,0.23-3.36,1.48-3.67,3.48
			C9.3,15.19,9.36,23.14,9.63,24.73C9.9,26.4,10.85,27.54,12.5,28c1.74,0.49,10.07,0.37,11.94,0.17c2.03-0.22,3.37-1.47,3.68-3.5
			c0.31-2.04,0.25-9.46,0.05-11.36C27.94,11.28,26.69,9.93,24.68,9.63z M18.86,24.81c-3.27-0.01-5.92-2.66-5.92-5.93
			c0-3.28,2.65-5.94,5.93-5.94c3.28,0,5.93,2.66,5.93,5.94S22.14,24.81,18.86,24.81z M25.03,14.1c-0.77,0-1.38-0.6-1.39-1.38
			c0-0.78,0.62-1.4,1.4-1.4c0.77,0.01,1.38,0.63,1.38,1.4S25.8,14.1,25.03,14.1z M18.88,15.04c-2.13,0-3.84,1.7-3.85,3.82
			c0,2.12,1.71,3.85,3.8,3.85c2.15,0,3.87-1.69,3.88-3.82C22.71,16.76,21,15.04,18.88,15.04z"/>
	</g>
</g>
<g id="Layer_2">
</g>
</svg>
