<?xml version="1.0" encoding="utf-8"?>
<!-- Generator: Adobe Illustrator 17.0.0, SVG Export Plug-In . SVG Version: 6.00 Build 0)  -->
<!DOCTYPE svg PUBLIC "-//W3C//DTD SVG 1.1//EN" "http://www.w3.org/Graphics/SVG/1.1/DTD/svg11.dtd">
<svg version="1.1" xmlns="http://www.w3.org/2000/svg" xmlns:xlink="http://www.w3.org/1999/xlink" x="0px" y="0px" width="37.74px"
	 height="37.74px" viewBox="0 0 37.74 37.74" enable-background="new 0 0 37.74 37.74" xml:space="preserve">
<g id="Layer_3">
	<path fill="#FFFFFF" d="M18.87,0C8.45,0,0,8.45,0,18.87s8.45,18.87,18.87,18.87s18.87-8.45,18.87-18.87S29.29,0,18.87,0z
		 M13.387,28.526H8.791V14.7h4.596V28.526z M11.089,12.812h-0.03c-1.542,0-2.54-1.062-2.54-2.388c0-1.357,1.028-2.389,2.6-2.389
		s2.54,1.032,2.57,2.389C13.689,11.75,12.692,12.812,11.089,12.812z M29.958,28.526h-4.595v-7.397c0-1.859-0.665-3.127-2.328-3.127
		c-1.269,0-2.026,0.855-2.358,1.681c-0.122,0.295-0.151,0.708-0.151,1.122v7.721H15.93c0,0,0.06-12.529,0-13.826h4.595v1.958
		c0.611-0.942,1.703-2.282,4.142-2.282c3.024,0,5.291,1.976,5.291,6.223V28.526z"/>
</g>
<g id="Layer_2">
</g>
</svg>
