<?xml version="1.0" encoding="utf-8"?>
<!-- Generator: Adobe Illustrator 17.0.0, SVG Export Plug-In . SVG Version: 6.00 Build 0)  -->
<!DOCTYPE svg PUBLIC "-//W3C//DTD SVG 1.1//EN" "http://www.w3.org/Graphics/SVG/1.1/DTD/svg11.dtd">
<svg version="1.1" xmlns="http://www.w3.org/2000/svg" xmlns:xlink="http://www.w3.org/1999/xlink" x="0px" y="0px" width="285px"
	 height="104.809px" viewBox="0 0 285 104.809" enable-background="new 0 0 285 104.809" xml:space="preserve">
<g id="Layer_3">
	<g>
		<g>
			<g>
				<g>
					<g>
						<path fill="#FFFDFF" d="M134.034,73.801c-0.665,0.295-1.788,0.535-3.283,0.535c-3.283,0-5.495-1.992-5.495-5.275
							c0-2.784,1.254-4.961,3.135-6.214c1.29-0.904,2.823-1.327,4.572-1.327c1.347,0,2.361,0.313,2.711,0.534l-0.717,2.157
							c-0.368-0.183-1.18-0.405-2.251-0.405c-1.067,0-2.082,0.332-2.838,0.959c-1.053,0.848-1.717,2.268-1.717,4.001
							c0,1.974,1.105,3.302,3.301,3.302c0.869,0,1.734-0.148,2.36-0.405L134.034,73.801z"/>
						<path fill="#FFFDFF" d="M143.533,68.877h-4.428l-0.572,3.006h4.962l-0.425,2.269h-7.616l2.361-12.43h7.357l-0.441,2.269
							h-4.685l-0.516,2.656h4.427L143.533,68.877z"/>
						<path fill="#FFFDFF" d="M144.989,74.151l2.36-12.43h3.117l1.639,4.74c0.498,1.586,0.83,2.878,1.128,4.241h0.052
							c0.057-1.272,0.223-2.637,0.572-4.463l0.849-4.519h2.47l-2.339,12.43h-2.749l-1.736-4.961
							c-0.552-1.679-0.883-2.803-1.216-4.334l-0.056,0.018c-0.145,1.199-0.441,2.97-0.81,4.925l-0.812,4.352H144.989z"/>
						<path fill="#FFFDFF" d="M161.439,64.044h-3.282l0.459-2.323h9.241l-0.442,2.323h-3.322l-1.898,10.107h-2.658L161.439,64.044z"
							/>
						<path fill="#FFFDFF" d="M169.33,61.961c0.83-0.203,2.086-0.332,3.322-0.332c1.18,0,2.396,0.185,3.262,0.719
							c0.813,0.48,1.385,1.272,1.385,2.435c0,1.844-1.236,2.987-2.823,3.504v0.073c0.739,0.314,1.053,1.144,1.18,2.269
							c0.149,1.383,0.258,3.007,0.481,3.522h-2.728c-0.113-0.332-0.24-1.401-0.371-2.932c-0.109-1.513-0.626-1.974-1.679-1.974
							h-0.809l-0.922,4.906h-2.636L169.33,61.961z M170.934,67.254h1.106c1.441,0,2.491-0.866,2.491-2.084
							c0-0.996-0.848-1.438-1.901-1.438c-0.495,0-0.81,0.036-1.032,0.092L170.934,67.254z"/>
						<path fill="#FFFDFF" d="M190.116,66.7c0,2.269-0.795,4.463-2.212,5.865c-1.163,1.125-2.732,1.789-4.594,1.789
							c-3.226,0-5.036-2.287-5.036-5.183c0-2.25,0.83-4.482,2.29-5.883c1.16-1.107,2.746-1.77,4.534-1.77
							C188.381,61.519,190.116,63.732,190.116,66.7z M182.646,64.672c-0.997,0.978-1.548,2.914-1.548,4.408
							c0,1.752,0.791,3.062,2.601,3.062c0.773,0,1.512-0.351,2.082-0.904c0.978-0.978,1.512-3.025,1.512-4.463
							c0-1.55-0.552-3.043-2.505-3.043C183.957,63.732,183.218,64.082,182.646,64.672z"/>
						<path fill="#FFFDFF" d="M194.134,74.151l2.36-12.43h3.117l1.643,4.74c0.498,1.586,0.83,2.878,1.124,4.241h0.056
							c0.053-1.272,0.219-2.637,0.572-4.463l0.848-4.519h2.471l-2.343,12.43h-2.746l-1.735-4.961
							c-0.555-1.679-0.887-2.803-1.216-4.334l-0.057,0.018c-0.148,1.199-0.441,2.97-0.813,4.925l-0.809,4.352H194.134z"/>
						<path fill="#FFFDFF" d="M209.845,70.924l-1.474,3.227h-2.82l6.047-12.43h3.413l1.456,12.43h-2.785l-0.258-3.227H209.845z
							 M213.316,68.896l-0.24-2.674c-0.056-0.683-0.131-1.679-0.183-2.435h-0.039c-0.314,0.756-0.664,1.716-0.997,2.435
							l-1.233,2.674H213.316z"/>
						<path fill="#FFFDFF" d="M226.61,73.801c-0.665,0.295-1.788,0.535-3.283,0.535c-3.283,0-5.495-1.992-5.495-5.275
							c0-2.784,1.255-4.961,3.135-6.214c1.293-0.904,2.823-1.327,4.577-1.327c1.346,0,2.36,0.313,2.71,0.534l-0.721,2.157
							c-0.368-0.183-1.18-0.405-2.251-0.405c-1.067,0-2.082,0.332-2.837,0.959c-1.053,0.848-1.718,2.268-1.718,4.001
							c0,1.974,1.11,3.302,3.304,3.302c0.866,0,1.732-0.148,2.361-0.405L226.61,73.801z"/>
						<path fill="#FFFDFF" d="M232.992,61.721l-2.36,12.43h-2.658l2.361-12.43H232.992z"/>
						<path fill="#FFFDFF" d="M245.46,66.7c0,2.269-0.795,4.463-2.215,5.865c-1.16,1.125-2.729,1.789-4.591,1.789
							c-3.226,0-5.036-2.287-5.036-5.183c0-2.25,0.83-4.482,2.287-5.883c1.162-1.107,2.749-1.77,4.537-1.77
							C243.725,61.519,245.46,63.732,245.46,66.7z M237.99,64.672c-0.997,0.978-1.549,2.914-1.549,4.408
							c0,1.752,0.792,3.062,2.598,3.062c0.777,0,1.512-0.351,2.084-0.904c0.979-0.978,1.513-3.025,1.513-4.463
							c0-1.55-0.552-3.043-2.509-3.043C239.301,63.732,238.562,64.082,237.99,64.672z"/>
						<path fill="#FFFDFF" d="M246.085,74.151l2.36-12.43h3.117l1.639,4.74c0.498,1.586,0.83,2.878,1.128,4.241h0.052
							c0.057-1.272,0.223-2.637,0.573-4.463l0.848-4.519h2.474l-2.343,12.43h-2.749l-1.731-4.961
							c-0.555-1.679-0.887-2.803-1.219-4.334l-0.053,0.018c-0.148,1.199-0.445,2.97-0.813,4.925l-0.813,4.352H246.085z"/>
						<path fill="#FFFDFF" d="M261.796,70.924l-1.473,3.227h-2.824l6.051-12.43h3.41l1.46,12.43h-2.785l-0.258-3.227H261.796z
							 M265.263,68.896l-0.237-2.674c-0.056-0.683-0.131-1.679-0.187-2.435h-0.036c-0.314,0.756-0.664,1.716-0.997,2.435
							l-1.236,2.674H265.263z"/>
						<path fill="#FFFDFF" d="M272.126,61.721h2.654l-1.919,10.107h4.778l-0.442,2.323h-7.431L272.126,61.721z"/>
						<path fill="#FFFDFF" d="M127.044,84.036c1.053-0.184,2.234-0.276,3.431-0.276c1.937,0,3.484,0.442,4.537,1.347
							c0.993,0.83,1.622,2.065,1.64,3.891c0,2.397-1.015,4.481-2.562,5.718c-1.438,1.143-3.266,1.641-5.958,1.641
							c-1.495,0-2.784-0.111-3.392-0.221L127.044,84.036z M127.783,94.142c0.314,0.056,0.7,0.074,1.162,0.074
							c1.438,0,2.71-0.516,3.52-1.456c0.848-0.961,1.293-2.251,1.293-3.746c0-1.954-1.089-3.116-3.283-3.116
							c-0.462,0-0.847,0.019-1.127,0.074L127.783,94.142z"/>
						<path fill="#FFFDFF" d="M145.339,91.008h-4.424l-0.572,3.006h4.961l-0.424,2.269h-7.619l2.36-12.43h7.361l-0.445,2.269h-4.682
							l-0.516,2.655h4.425L145.339,91.008z"/>
						<path fill="#FFFDFF" d="M150.724,93.406c0.735,0.441,1.788,0.793,2.93,0.793c1.034,0,1.975-0.481,1.975-1.457
							c0-0.701-0.537-1.161-1.679-1.751c-1.329-0.721-2.584-1.679-2.584-3.303c0-2.507,2.196-4.037,4.906-4.037
							c1.512,0,2.399,0.331,2.933,0.626l-0.83,2.212c-0.403-0.219-1.29-0.571-2.321-0.551c-1.237,0-1.881,0.625-1.881,1.307
							c0,0.721,0.757,1.162,1.806,1.753c1.512,0.793,2.47,1.807,2.47,3.282c0,2.767-2.287,4.188-5.053,4.188
							c-1.732,0-2.968-0.443-3.559-0.887L150.724,93.406z"/>
						<path fill="#FFFDFF" d="M164.556,83.852l-1.367,7.156c-0.093,0.424-0.127,0.922-0.127,1.475c0,0.995,0.608,1.77,1.806,1.77
							c1.385,0,2.307-0.922,2.749-3.228l1.363-7.174h2.658l-1.347,7.064c-0.721,3.762-2.382,5.569-5.757,5.569
							c-2.561,0-4.131-1.309-4.131-3.965c0-0.535,0.074-1.145,0.187-1.735l1.307-6.933H164.556z"/>
						<path fill="#FFFDFF" d="M173.977,84.092c0.796-0.203,2.05-0.332,3.248-0.332c1.106,0,2.396,0.184,3.301,0.83
							c0.83,0.571,1.346,1.438,1.346,2.636c0,1.569-0.721,2.749-1.696,3.505c-1.014,0.792-2.452,1.141-3.964,1.141
							c-0.442,0-0.814-0.035-1.089-0.074l-0.848,4.483h-2.601L173.977,84.092z M175.528,89.644c0.276,0.055,0.572,0.092,1.015,0.092
							c1.604,0,2.654-1.034,2.654-2.269c0-1.198-0.866-1.587-1.898-1.587c-0.497,0-0.847,0.037-1.071,0.092L175.528,89.644z"/>
						<path fill="#FFFDFF" d="M190.151,91.008h-4.424l-0.572,3.006h4.961l-0.424,2.269h-7.619l2.36-12.43h7.361l-0.445,2.269h-4.682
							l-0.516,2.655h4.424L190.151,91.008z"/>
						<path fill="#FFFDFF" d="M193.95,84.092c0.83-0.203,2.085-0.332,3.318-0.332c1.181,0,2.4,0.184,3.266,0.719
							c0.813,0.479,1.385,1.272,1.385,2.435c0,1.843-1.236,2.988-2.823,3.504v0.074c0.739,0.313,1.053,1.143,1.18,2.269
							c0.149,1.382,0.258,3.006,0.481,3.522h-2.732c-0.109-0.332-0.237-1.401-0.368-2.932c-0.109-1.512-0.626-1.975-1.679-1.975
							h-0.809l-0.922,4.907h-2.64L193.95,84.092z M195.555,89.386h1.106c1.438,0,2.491-0.868,2.491-2.085
							c0-0.996-0.848-1.438-1.901-1.438c-0.498,0-0.81,0.036-1.033,0.092L195.555,89.386z"/>
						<path fill="#FFFDFF" d="M211.691,95.931c-0.661,0.296-1.788,0.537-3.28,0.537c-3.283,0-5.499-1.993-5.499-5.276
							c0-2.785,1.255-4.962,3.138-6.214c1.29-0.903,2.82-1.327,4.573-1.327c1.346,0,2.36,0.313,2.71,0.533l-0.721,2.158
							c-0.368-0.184-1.18-0.405-2.247-0.405c-1.071,0-2.085,0.332-2.841,0.958c-1.05,0.848-1.714,2.269-1.714,4.002
							c0,1.974,1.106,3.302,3.3,3.302c0.866,0,1.732-0.148,2.36-0.406L211.691,95.931z"/>
						<path fill="#FFFDFF" d="M225.045,88.831c0,2.269-0.795,4.464-2.213,5.866c-1.162,1.124-2.732,1.788-4.594,1.788
							c-3.226,0-5.036-2.287-5.036-5.182c0-2.25,0.83-4.483,2.29-5.882c1.159-1.108,2.746-1.77,4.534-1.77
							C223.309,83.65,225.045,85.863,225.045,88.831z M217.574,86.802c-0.996,0.979-1.548,2.914-1.548,4.407
							c0,1.752,0.792,3.064,2.602,3.064c0.773,0,1.512-0.352,2.081-0.905c0.979-0.979,1.513-3.025,1.513-4.463
							c0-1.55-0.552-3.043-2.506-3.043C218.885,85.863,218.147,86.212,217.574,86.802z M223.624,80.809l-2.435,2.323h-2.251
							l1.735-2.323H223.624z"/>
						<path fill="#FFFDFF" d="M236.053,96.282l0.756-5.126c0.206-1.346,0.481-3.062,0.83-4.852h-0.056
							c-0.682,1.604-1.456,3.32-2.138,4.686l-2.545,5.089h-2.067l-0.442-5.034c-0.109-1.366-0.201-3.08-0.276-4.74h-0.038
							c-0.35,1.641-0.717,3.505-1.032,4.852l-1.236,5.126h-2.431l3.117-12.43h3.558l0.385,4.721
							c0.074,1.162,0.205,2.583,0.223,3.965h0.075c0.48-1.382,1.141-2.839,1.678-3.965l2.304-4.721h3.598l-1.679,12.43H236.053z"/>
						<path fill="#FFFDFF" d="M243.117,84.092c0.795-0.203,2.046-0.332,3.247-0.332c1.106,0,2.396,0.184,3.301,0.83
							c0.83,0.571,1.346,1.438,1.346,2.636c0,1.569-0.72,2.749-1.695,3.505c-1.015,0.792-2.453,1.141-3.965,1.141
							c-0.445,0-0.813-0.035-1.089-0.074l-0.848,4.483h-2.601L243.117,84.092z M244.669,89.644c0.275,0.055,0.569,0.092,1.014,0.092
							c1.605,0,2.654-1.034,2.654-2.269c0-1.198-0.866-1.587-1.898-1.587c-0.498,0-0.852,0.037-1.071,0.092L244.669,89.644z"/>
						<path fill="#FFFDFF" d="M256.082,83.852l-1.367,7.156c-0.093,0.424-0.127,0.922-0.127,1.475c0,0.995,0.608,1.77,1.806,1.77
							c1.385,0,2.307-0.922,2.748-3.228l1.364-7.174h2.658l-1.347,7.064c-0.721,3.762-2.382,5.569-5.757,5.569
							c-2.561,0-4.131-1.309-4.131-3.965c0-0.535,0.074-1.145,0.187-1.735l1.307-6.933H256.082z"/>
						<path fill="#FFFDFF" d="M267.366,86.175h-3.28l0.459-2.323h9.241l-0.445,2.323h-3.319l-1.901,10.107h-2.653L267.366,86.175z"
							/>
						<path fill="#FFFDFF" d="M285,88.831c0,2.269-0.795,4.464-2.215,5.866c-1.16,1.124-2.729,1.788-4.591,1.788
							c-3.226,0-5.036-2.287-5.036-5.182c0-2.25,0.83-4.483,2.286-5.882c1.162-1.108,2.749-1.77,4.538-1.77
							C283.265,83.65,285,85.863,285,88.831z M277.53,86.802c-0.997,0.979-1.549,2.914-1.549,4.407c0,1.752,0.792,3.064,2.598,3.064
							c0.777,0,1.512-0.352,2.085-0.905c0.979-0.979,1.513-3.025,1.513-4.463c0-1.55-0.552-3.043-2.509-3.043
							C278.841,85.863,278.102,86.212,277.53,86.802z"/>
					</g>
				</g>
				<g>
					<g>
						<path fill="#FFFDFF" d="M155.336,49.205c-2.177,0.966-5.859,1.752-10.753,1.752c-10.754,0-18.002-6.525-18.002-17.277
							c0-9.121,4.11-16.249,10.27-20.357c4.229-2.959,9.243-4.349,14.98-4.349c4.41,0,7.732,1.027,8.88,1.752l-2.354,7.068
							c-1.208-0.604-3.866-1.328-7.372-1.328c-3.501,0-6.823,1.087-9.301,3.141c-3.445,2.778-5.619,7.43-5.619,13.108
							c0,6.464,3.627,10.813,10.814,10.813c2.837,0,5.678-0.484,7.732-1.33L155.336,49.205z"/>
						<path fill="#FFFDFF" d="M159.983,50.352l7.732-40.714h10.209l5.375,15.525c1.633,5.194,2.721,9.423,3.686,13.893h0.18
							c0.183-4.169,0.725-8.639,1.873-14.619l2.781-14.8h8.092l-7.672,40.714h-9l-5.679-16.249
							c-1.81-5.497-2.898-9.182-3.986-14.196l-0.18,0.06c-0.484,3.927-1.449,9.726-2.658,16.13l-2.657,14.255H159.983z"/>
						<path fill="#FFFDFF" d="M201.962,40.93c2.416,1.449,5.859,2.597,9.604,2.597c3.383,0,6.464-1.571,6.464-4.773
							c0-2.295-1.753-3.806-5.495-5.739c-4.35-2.355-8.46-5.497-8.46-10.813c0-8.215,7.191-13.229,16.069-13.229
							c4.955,0,7.856,1.087,9.604,2.054l-2.717,7.249c-1.329-0.725-4.231-1.873-7.612-1.812c-4.047,0-6.159,2.053-6.159,4.288
							c0,2.356,2.477,3.806,5.919,5.739c4.955,2.597,8.093,5.92,8.093,10.753c0,9.061-7.489,13.713-16.55,13.713
							c-5.678,0-9.725-1.45-11.658-2.9L201.962,40.93z"/>
					</g>
				</g>
			</g>
			<g>
				<g>
					<path fill="#FFFDFF" d="M85.586,64.926c-0.071-0.095-0.153-0.195-0.243-0.305c-0.545-0.655-1.371-1.648-2.148-3.819
						c-0.662,1.389-2.151,3.341-5.495,5.122c-2.343,1.249-4.769,1.882-7.212,1.882c-1.333,0-2.372-0.191-3.033-0.361
						c-0.488,6.591-1.894,10.444-3.101,13.074c2.935,4.379,4.93,8.259,5.413,9.223l14.966,8.714
						c-0.644-2.007-1.077-4.273-1.289-6.75c-0.596-7.027,0.249-18.153,1.707-22.462c0.321-0.951,0.781-2.064,1.44-3.477
						C86.28,65.634,85.925,65.384,85.586,64.926z"/>
					<path fill="#FFFDFF" d="M74.889,8.36c-2.01,1.162-4.711,2.113-8.081,2.035c-6.948-0.167-11.111-4.85-12.889-6.85
						c-0.193-0.216-0.36-0.405-0.503-0.556C52.668,2.195,51.733,1.007,50.972,0c0.08,0.716,0.026,1.55-0.323,2.427
						c-1.029,2.589-4.188,4.505-9.389,5.695c-4.525,1.034-8.467,1.559-11.718,1.559c-0.514,0-1.008-0.013-1.479-0.039
						c1.229,0.59,2.641,1.349,4.207,2.365c3.948,2.56,7.224,4.751,7.81,5.146c2.484-0.498,4.861-0.745,7.103-0.745
						c2.822,0,4.959,0.38,6.374,0.631l0.068,0.012c0.558,0.099,1,0.177,1.335,0.206c0.124,0.011,0.262,0.016,0.415,0.016
						c2.637,0,8.708-1.327,13.951-4.276C71.467,11.791,73.375,10.032,74.889,8.36z"/>
					<path fill="#FFFDFF" d="M85.58,32.28c0.086-0.196,0.156-0.355,0.205-0.486c0.227-0.633,0.634-1.276,1.038-1.817
						c-2.267,0.139-4.663,0.573-7.135,1.293c-8.856,2.579-14.376,11.288-15.32,12.876c0.24,0.605,0.906,2.375,1.575,4.982
						c0.208-0.013,0.47-0.023,0.779-0.023c1.856,0,5.608,0.371,9.876,2.851c2.657,1.544,4.352,2.994,5.422,4.149
						c-0.192-1.102-0.359-2.309-0.5-3.604c-0.943-8.701,2.435-16.39,3.122-17.843c0.329-1.028,0.681-1.801,0.891-2.263L85.58,32.28z
						"/>
					<path fill="#FFFDFF" d="M56.022,45.944c-3.199,0-6.476-0.53-9.738-1.575c-8.741-2.803-13.86-7.674-15.234-9.115L1.265,56.195
						c3.129-0.333,7.125-0.069,11.587,0.784c10.011,1.912,13.985,8.072,14.537,9.011l2.633,2.299
						c0.588-0.541,1.793-1.48,3.736-2.259c-0.074-0.876,0.017-2.668,1.414-5.008c1.926-3.227,4.836-4.517,4.959-4.57l0.451-0.196
						l0.055,0.489c0,0,0.053,0.366,0.411,1.093c0.144,0.296,1.472,2.893,3.877,3.494c0.981,0.244,1.778,0.346,2.283,0.301
						c0.526-0.84,1.642-2.112,4.486-5.318c3.312-3.737,8.294-8.93,10.342-11.051C60.667,45.597,58.616,45.944,56.022,45.944z"/>
					<path fill="#FFFDFF" d="M59.915,90.985c-0.317-0.038-0.665-0.097-1.043-0.162c-0.832-0.142-1.775-0.302-2.816-0.31
						c-4.117-0.031-9.747-0.075-15.629-3.95c-8.086-5.326-10.167-12.792-10.613-14.953c-0.244-1.186-0.346-1.838-0.389-2.169
						l-1.75-1.539c0.108,1.261,0.261,3.023,0.435,5.026c0.415,4.789,0.932,10.748,1.257,14.742c0.413,5.074,0.555,6.702,0.724,7.938
						c0.263,0.142,0.623,0.422,1.227,0.898c1.981,1.561,5.668,4.466,9.9,4.466c0.712,0,1.42-0.084,2.104-0.25
						c5.107-1.24,7.362-2.597,9.543-3.909c1.124-0.676,2.287-1.376,3.803-2.026c1.235-0.529,2.433-0.797,3.559-0.797
						c2.119,0,3.722,0.952,4.774,2.023C64.069,93.874,62.293,91.268,59.915,90.985z"/>
				</g>
				<g>
					<path fill="#FFFDFF" d="M24.813,9.602c-0.442-0.18-0.792-0.322-1.068-0.454c-0.978,1.092-3.428,4.35-4.447,10.454
						c-1.06,6.368-0.962,12.287-0.887,14.296c1.573-0.7,2.94-1.906,4.069-3.591c0.504-0.751,0.965-1.485,1.411-2.194l0.048-0.077
						c2.807-4.48,5.024-8.017,13.51-10.272c0.309-0.082,0.616-0.159,0.922-0.232c-1.392-0.927-3.899-2.59-6.788-4.464
						C28.634,11.156,26.242,10.184,24.813,9.602z"/>
					<path fill="#FFFDFF" d="M62.881,80.673C58.774,74.679,52.6,67.407,46.285,66.377c-1.674-0.274-3.295-0.412-4.818-0.412
						c-5.962,0-9.17,2.072-10.392,3.099l29.057,16.202c0.823-1.1,1.496-2.145,2-3.109C62.433,81.583,62.668,81.117,62.881,80.673z"
						/>
					<path fill="#FFFDFF" d="M54.337,23.788c1.577-2.778,1.328-4.015,1.222-4.543l-0.01-0.067c-0.027-0.124-0.177-0.375-0.391-0.645
						c-0.041-0.001-0.081-0.002-0.12-0.004c-1.237,1.059-5.121,4.291-10.067,7.504c-3.736,2.428-8.054,4.482-10.73,5.667
						c2.03-0.08,4.415-0.401,6.83-0.924C47.212,29.446,52.791,26.507,54.337,23.788z"/>
					<path fill="#FFFDFF" d="M47.977,63.854c1.834-0.438,4.21-2.051,8.644-9.247c1.127-1.829,2.181-3.552,3.151-5.152
						c-2.135,2.245-4.979,5.272-7.13,7.697c-4.099,4.623-4.492,5.117-4.672,5.871C47.885,63.388,47.926,63.675,47.977,63.854z"/>
					<path fill="#FFFDFF" d="M90.247,61.233c-0.431,0.844-0.851,1.673-1.253,2.48c4.218-2.666,11.996-7.605,14.256-9.192
						c2.02-1.418,4.19-3.055,5.428-4c-0.704-1.768-3.695-8.007-12.03-11.935c0.273,5.154-0.323,9.418-1.818,13.018
						c-1.357,3.271-3.052,6.612-4.547,9.56L90.247,61.233z"/>
					<path fill="#FFFDFF" d="M96.511,15.671c-7.23-0.893-14.26-6.575-17.179-9.213c0.471,3.707,1.287,10.04,1.686,12.799
						c0.322,2.215,0.713,5.789,1.104,10.095c1.688-0.359,3.337-0.583,4.917-0.667c-0.351-0.831-0.704-2.255-0.498-4.442
						C86.81,21.362,89.636,17.673,96.511,15.671z"/>
				</g>
				<g>
					<path fill="#FFFDFF" d="M66.247,50.383c0.736,3.191,1.186,6.445,1.337,9.683c0.474,0.274,1.468,0.941,3.081,2.448
						c1.638,1.528,2.227,2.959,2.438,3.746c1.361-0.275,2.706-0.762,4.003-1.452c4.796-2.555,5.308-5.427,5.362-5.953
						c-0.371-0.742-1.844-3.096-6.506-5.807C71.609,50.518,67.787,50.33,66.247,50.383z"/>
					<path fill="#FFFDFF" d="M41.121,85.506c5.57,3.67,10.982,3.712,14.934,3.743c0.174,0,0.341,0.001,0.505,0.003
						c0.151-0.117,0.337-0.262,0.386-0.308c0.289-0.289,1.273-1.291,2.394-2.67l-28.476-15.88c0.053,0.284,0.116,0.605,0.189,0.962
						C31.472,73.396,33.437,80.445,41.121,85.506z"/>
					<path fill="#FFFDFF" d="M63.56,45.6c-0.984,1.666-2.835,4.759-5.863,9.672c-4.912,7.974-7.722,9.755-10.429,9.975
						c-0.038,0.003-0.077,0.006-0.115,0.01c6.364,1.424,12.323,8.249,16.364,14.037c1.399-3.236,2.763-7.781,2.857-16.29
						C66.466,54.822,64.495,48.246,63.56,45.6z"/>
					<path fill="#FFFDFF" d="M82.777,52.361c0.894,8.261,2.594,10.312,3.508,11.414c0.014,0.017,0.027,0.034,0.04,0.049
						c-0.859-3.017-2.453-9.429-2.875-16.729c-0.094-1.616-0.114-3.156-0.062-4.611C82.769,45.349,82.387,48.776,82.777,52.361z"/>
					<path fill="#FFFDFF" d="M68.707,90.452c-0.805-1.695-2.1-4.19-5.011-8.569c-0.146,0.292-0.294,0.579-0.443,0.861
						c-1.449,2.759-3.754,5.357-4.889,6.556c0.606,0.033,1.228,0.095,1.773,0.222c2.388,0.557,5.311,1.844,6.724,6.901
						c0.733,2.624,1.077,4.759,0.757,7.866C69.818,97.293,69.545,92.217,68.707,90.452z"/>
					<path fill="#FFFDFF" d="M41.339,32.014c-1.348,0.292-4.835,0.971-8.092,0.971c-0.454,0-0.897-0.014-1.322-0.041L31.8,34.202
						c0.921,1.001,5.927,6.094,14.869,8.961c3.518,1.129,7.049,1.636,10.468,1.493c-1.457-1.511-4.589-5.859-1.165-12.698
						c-2.114-2.014-3.864-2.92-3.881-2.928l-0.652-0.268l0.603-1.035c-0.405,0.272-0.835,0.538-1.286,0.796
						C48.157,30.013,44.838,31.256,41.339,32.014z"/>
					<path fill="#FFFDFF" d="M30.666,32.812c-1.852-0.275-3.174-0.883-3.933-1.81c-0.828-1.009-1.293-1.881-1.554-2.563
						c-0.056,0.089-0.112,0.179-0.168,0.269l-0.043,0.069c-0.453,0.72-0.921,1.465-1.435,2.233
						c-2.284,3.409-5.136,4.472-7.126,4.764c-0.719,0.217-1.535,0.333-2.376,0.333c-1.184,0-2.409-0.23-3.642-0.686
						c-3.421-1.262-7.648-6.034-9.809-8.693c1.001,3.039,2.577,8.883,2.327,14.934C2.652,47.793,0.962,53.019,0,55.538
						l30.541-21.473L30.666,32.812z"/>
					<path fill="#FFFDFF" d="M13.396,83.898c6.015,0,9.685,1.609,12.272,5.379c0.331,0.483,0.666,0.96,0.994,1.427
						c0.734,1.046,1.446,2.058,2.007,2.987c-0.258-2.25-0.576-5.272-0.782-7.814c-0.531-6.501-1.441-17.459-1.591-19.252
						c-0.42-0.723-4.079-6.568-13.68-8.404c-3.092-0.591-5.935-0.89-8.45-0.89c-1.745,0-3.068,0.146-4.002,0.309
						c2.044,1.655,6.229,5.973,6.545,13.753c0.292,7.181-2.193,13.277-3.656,16.202c1.891-1.479,5.324-3.599,9.547-3.689
						C12.871,83.901,13.136,83.898,13.396,83.898z"/>
					<path fill="#FFFDFF" d="M87.937,65.877c-0.752,1.594-1.258,2.795-1.588,3.773c-1.413,4.173-2.226,15.045-1.642,21.95
						c0.107,1.259,0.276,2.469,0.507,3.62c0.194-1.287,0.653-2.786,1.579-4.422c2.968-5.251,10.841-5.937,14.203-6.23
						c0.286-0.025,0.538-0.047,0.751-0.069c1.407-0.143,2.609-0.224,3.432-0.268c-1.339-1.023-3.625-3.443-4.746-8.532
						c-1.552-7.053,3.79-17.92,5.98-21.512c0.151-0.248,0.299-0.486,0.444-0.713c-1.048,0.775-2.012,1.472-2.881,2.082
						C101.083,57.589,89.101,65.144,87.937,65.877z"/>
					<path fill="#FFFDFF" d="M84.714,47.022c0.427,7.376,2.083,13.868,2.885,16.655c0.425-0.859,0.88-1.757,1.354-2.694l0.163-0.322
						c1.504-2.961,3.198-6.296,4.545-9.542c1.575-3.794,2.098-8.439,1.599-14.201c-0.47-1.681-1.137-3.717-3.043-6.65
						c-1.158-0.22-2.408-0.334-3.72-0.339c-0.375,0.421-1.203,1.413-1.525,2.297c-0.063,0.179-0.157,0.391-0.277,0.659
						c-0.195,0.43-0.463,1.021-0.743,1.824l0.004,0.002l-0.155,0.447C84.81,38.25,84.439,42.256,84.714,47.022z"/>
					<path fill="#FFFDFF" d="M80.276,98.759c0.69,0,1.39,0.06,2.095,0.18c-3.047-1.836-8.706-5.212-11.815-7.065
						c0.687,4.564-0.517,9.945-1.363,12.936C71.086,102.428,74.88,98.759,80.276,98.759z"/>
					<path fill="#FFFDFF" d="M87.801,24.361c-0.244,2.616,0.412,3.921,0.64,4.286c1.005,0.001,1.981,0.062,2.911,0.183
						c-1.112-2.107-1.437-4.15-0.938-5.945c0.518-1.867,1.894-3.403,4.091-4.568c1.805-0.957,4-1.704,6.118-2.273
						C91.128,17.566,88.042,21.76,87.801,24.361z"/>
					<path fill="#FFFDFF" d="M79.767,19.438c-0.397-2.743-1.21-9.052-1.706-12.956c-1.899,2.55-4.714,5.702-8.117,7.617
						c-4.608,2.593-9.977,4.044-13.319,4.369c0.08,0.168,0.136,0.331,0.166,0.486c0.144,0.702,0.462,2.261-1.354,5.461
						c-0.071,0.125-0.152,0.25-0.235,0.374l-1.964,3.397c1.73,0.928,5.884,3.704,6.643,9.253c0.51,3.746,0.107,5.848-0.459,7.024
						c2.005-0.265,3.344-0.7,3.798-0.862c0.898-1.535,6.642-10.787,16.114-13.546c0.512-0.149,1.03-0.289,1.544-0.417
						C80.73,27.996,80.244,22.731,79.767,19.438z"/>
					<path fill="#FFFDFF" d="M26.116,26.974c0.019,0.33,0.19,1.512,1.595,3.226c0.598,0.731,1.778,1.205,3.507,1.408
						c1.439-0.579,7.8-3.218,13.06-6.636c4.335-2.815,7.613-5.445,9.09-6.681l-0.025-0.004c-1.38-0.245-3.451-0.612-6.162-0.612
						c-2.967,0-6.133,0.441-9.409,1.312C30.647,20.882,28.255,23.724,26.116,26.974z"/>
				</g>
			</g>
		</g>
	</g>
</g>
<g id="Layer_2">
</g>
</svg>
