<?xml version="1.0" encoding="utf-8"?>
<!-- Generator: Adobe Illustrator 17.0.0, SVG Export Plug-In . SVG Version: 6.00 Build 0)  -->
<!DOCTYPE svg PUBLIC "-//W3C//DTD SVG 1.1//EN" "http://www.w3.org/Graphics/SVG/1.1/DTD/svg11.dtd">
<svg version="1.1" xmlns="http://www.w3.org/2000/svg" xmlns:xlink="http://www.w3.org/1999/xlink" x="0px" y="0px" width="37.74px"
	 height="37.75px" viewBox="0 0 37.74 37.75" enable-background="new 0 0 37.74 37.75" xml:space="preserve">
<g id="Layer_3">
	<g>
		<path fill="#FFFFFF" d="M18.87,0C8.45,0,0,8.45,0,18.88C0,29.3,8.45,37.75,18.87,37.75c10.42,0,18.87-8.45,18.87-18.87
			C37.74,8.45,29.29,0,18.87,0z M30.62,12.02c-0.53,0.66-1.15,1.25-1.84,1.75c-0.06,0.04-0.09,0.08-0.08,0.16
			c0.02,0.75-0.01,1.5-0.1,2.25c-0.19,1.58-0.63,3.08-1.3,4.51c-0.7,1.48-1.6,2.82-2.74,4c-1.93,2-4.26,3.28-6.97,3.88
			c-0.93,0.2-1.87,0.31-2.82,0.34c-2.93,0.08-5.63-0.64-8.11-2.18c-0.04-0.02-0.07-0.04-0.12-0.08c1.77,0.19,3.45-0.04,5.07-0.7
			c0.86-0.35,1.65-0.81,2.41-1.4c-2.64-0.09-4.28-1.98-4.72-3.52c0.73,0.14,1.46,0.11,2.17-0.06c0.02-0.01,0.04-0.02,0.08-0.04
			c-1.43-0.33-2.53-1.09-3.3-2.32c-0.5-0.82-0.74-1.72-0.74-2.7c0.72,0.38,1.46,0.59,2.26,0.61c-1.07-0.77-1.79-1.78-2.09-3.07
			c-0.29-1.29-0.1-2.52,0.55-3.67c2.74,3.23,6.21,5,10.45,5.29c-0.03-0.2-0.06-0.37-0.08-0.55c-0.14-1.19,0.09-2.3,0.74-3.31
			c0.8-1.27,1.96-2.05,3.44-2.29c1.7-0.28,3.19,0.2,4.43,1.41c0.09,0.08,0.16,0.11,0.27,0.08c1.05-0.23,2.03-0.6,2.95-1.13
			c0.02-0.02,0.05-0.03,0.07-0.04c0,0,0.01,0,0.03,0c-0.4,1.18-1.13,2.08-2.17,2.76c0.98-0.11,1.92-0.37,2.82-0.76
			c0.01,0,0.02,0.01,0.03,0.02C31.01,11.51,30.82,11.77,30.62,12.02z"/>
	</g>
</g>
<g id="Layer_2">
</g>
</svg>
