<?xml version="1.0" encoding="utf-8"?>
<!-- Generator: Adobe Illustrator 17.0.0, SVG Export Plug-In . SVG Version: 6.00 Build 0)  -->
<!DOCTYPE svg PUBLIC "-//W3C//DTD SVG 1.1//EN" "http://www.w3.org/Graphics/SVG/1.1/DTD/svg11.dtd">
<svg version="1.1" xmlns="http://www.w3.org/2000/svg" xmlns:xlink="http://www.w3.org/1999/xlink" x="0px" y="0px" width="37.75px"
	 height="37.75px" viewBox="0 0 37.75 37.75" enable-background="new 0 0 37.75 37.75" xml:space="preserve">
<g id="Layer_3">
	<g>
		<path fill="#FFFFFF" d="M15.48,14.13c2.85,1.49,5.69,2.96,8.56,4.46c-2.87,1.49-5.7,2.96-8.56,4.44V14.13z"/>
		<path fill="#FFFFFF" d="M18.88,0C8.45,0,0,8.45,0,18.88C0,29.3,8.45,37.75,18.88,37.75c10.42,0,18.87-8.45,18.87-18.87
			C37.75,8.45,29.3,0,18.88,0z M31.77,26.31c-0.32,0.68-0.84,1.16-1.49,1.5c-1.77,0.93-20.01,0.92-22.34,0.15
			c-1.04-0.34-1.74-1.02-2.12-2.05C4.91,23.39,4.64,12.86,6.4,10.79C7,10.08,7.78,9.66,8.7,9.56c4.75-0.51,19.43-0.43,21.12,0.18
			c0.99,0.35,1.7,1,2.08,1.99C32.9,14.34,32.94,23.8,31.77,26.31z"/>
	</g>
</g>
<g id="Layer_2">
</g>
</svg>
